<svg height="200" viewBox="0 0 200 200" width="200" xmlns="http://www.w3.org/2000/svg" xmlns:xlink="http://www.w3.org/1999/xlink"><linearGradient id="a"><stop offset="0" stop-color="#6e4f50"/><stop offset="1" stop-color="#c67649"/></linearGradient><linearGradient id="b" x1="8.990765%" x2="87.913988%" xlink:href="#a" y1="-4.372863%" y2="100%"/><linearGradient id="c" x1="8.990765%" x2="87.913988%" xlink:href="#a" y1="46.807919%" y2="52.935362%"/><linearGradient id="d" x1="8.990765%" x2="87.913988%" xlink:href="#a" y1="47.476484%" y2="52.320566%"/><linearGradient id="e" x1="8.990765%" x2="87.913988%" xlink:href="#a" y1="-2.741142%" y2="98.499508%"/><linearGradient id="f" x1="8.990765%" x2="87.913988%" xlink:href="#a" y1="-1.183914%" y2="97.067518%"/><linearGradient id="g" x1="8.990765%" x2="87.913988%" xlink:href="#a" y1="2.835895%" y2="93.370997%"/><g fill="none" fill-rule="nonzero"><g transform="translate(19.5 19.5)"><path d="m81 162c-44.7350647 0-81-36.264935-81-81 0-44.7350647 36.2649353-81 81-81 44.735065 0 81 36.2649353 81 81 0 44.735065-36.264935 81-81 81zm0-5c41.973641 0 76-34.026359 76-76s-34.026359-76-76-76-76 34.026359-76 76 34.026359 76 76 76z" fill="url(#b)"/><path d="m28.0791016 94.7324219.0161132-.4672852c.1181647-3.2119301.9291917-6.2465677 2.4331055-9.1040039 1.3857491-2.6103646 3.1313371-4.7211833 5.2368164-6.3325195 2.0839948-1.5898517 4.1142479-2.3847656 6.0908203-2.3847656 1.5039138 0 2.6909136.5209908 3.5610352 1.5629882.7412146.9023483 1.1118164 2.0087825 1.1118164 3.319336 0 1.5683672-.5747013 3.1152267-1.7241211 4.640625-.666019.8808638-1.3749962 1.5146465-2.1269531 1.9013672-.354494.1933603-.6848129.290039-.9909668.290039s-.5881335-.0644525-.8459473-.1933593c-.2578138-.1289069-.4833975-.2900381-.6767578-.4833985-.3974629-.4189474-.5961914-.7949202-.5961914-1.1279297s.0859366-.5639642.2578125-.6928711c1.7617276-1.2675844 2.9594695-2.5727472 3.5932617-3.9155273.2470716-.5156276.3706055-1.0205054.3706055-1.5146484 0-1.0419974-.4941357-1.5629883-1.4824219-1.5629883-1.5468827 0-3.1420816.8432533-4.7856445 2.5297851-1.5361405 1.557625-2.8251901 3.5126836-3.8671875 5.8652344-1.0849664 2.4170043-1.6596677 4.6352438-1.7241211 6.6547852l-.0161133.6123046c0 2.4170043.5102488 4.0014611 1.5307617 4.753418.3652362.268556.802976.402832 1.3132324.402832.5102565 0 .9909646-.0644524 1.4421387-.1933593s.9023415-.3061512 1.3535156-.5317383c.7304724-.3759785 1.6650334-1.0258743 2.803711-1.949707.3437517-.2685561.6284168-.2309588.8540039.1127929.1933603.2792983.290039.6015607.290039.9667969 0 .6123077-.0832511 1.0285634-.2497558 1.2487793-.1665048.2202159-.4511699.4807114-.8540039.7814941-.4028341.3007826-.8942842.5800766-1.4743653.8378906-1.3535223.601566-2.6801692.902344-3.9799804.902344s-2.347164-.158446-3.1420899-.475342c-.7949258-.316896-1.4663058-.770749-2.0141601-1.3615722-1.1386776-1.2461-1.7080078-2.9433487-1.7080078-5.0917969zm18.6914062 5.6718751c-.4511741-.4296898-.8056628-.9748503-1.0634765-1.6354982-.2578138-.6606478-.3920898-1.4421341-.4028321-2.3444824-.0107422-.9023483.0993641-1.8154251.3303223-2.7392578.2309582-.9238328.5585916-1.8154254.9829101-2.6748047.4243186-.8593793.9345674-1.6650353 1.5307618-2.4169922.5961943-.7519569 1.2541468-1.4072238 1.9738769-1.9658203 1.5683672-1.203131 3.1957924-1.8046875 4.8823242-1.8046875 2.2129017 0 3.7114219.9721583 4.4956055 2.9165039.5585965 1.4072336.5908228 3.1098533.0966797 5.1079102-.4511741 1.8369232-1.2783143 3.5234298-2.4814453 5.0595703-1.1923888 1.5361405-2.5996013 2.6264617-4.2216797 3.2709957-.8164103.322268-1.6193808.483399-2.4089356.483399-.7895547 0-1.4931609-.10205-2.1108398-.306153-.6176789-.204102-1.1520974-.520993-1.6032715-.950683zm3.0776367-7.8149415c-.3222672.7949258-.5773916 1.6113239-.7653808 2.4492187s-.2766114 1.6301232-.2658692 2.376709c.0107423.7465858.1262196 1.3320291.3464356 1.7563477.2202159.4243185.5773901.6364746 1.0715332.6364746s.9802222-.1691878 1.4582519-.5075684c.4780298-.3383806.9426247-.7868624 1.3937989-1.345459.4511741-.5585965.8754863-1.2031213 1.2729492-1.9335937s.7465805-1.4931601 1.0473633-2.288086c.6552767-1.7295008.972168-3.2656182.9506836-4.6083984 0-1.1816465-.2416968-1.9335921-.7250977-2.2558594-.1933603-.1289069-.4645979-.1933594-.8137207-.1933594s-.7492653.1584457-1.2004395.4753418c-.4511741.3168962-.9023415.7438938-1.3535156 1.2810059s-.8862284 1.1655238-1.3051758 1.8852539c-.4189474.7197302-.7895491 1.4770468-1.1118164 2.2719727zm12.3266602 3.3515625c.0214845-.934575.1691881-1.8664505.4431152-2.7956543.2739272-.9292039.6391579-1.8073689 1.0957031-2.6345215.4565453-.8271526.9990203-1.5898403 1.6274415-2.288086.6284211-.6982456 1.3132287-1.2998021 2.0544433-1.8046874 1.5468827-1.0634819 3.1743079-1.5952149 4.8823242-1.5952149 1.7617276 0 2.9594695.7036063 3.5932618 2.1108399.225587.5048853.3303223 1.0769011.3142089 1.7160644-.0161133.6391634-.1208486 1.2246067-.3142089 1.7563477-.1933604.5317409-.4350572 1.0070779-.7250977 1.4260253-.6552767.9453173-1.3159146 1.4179688-1.9819336 1.4179688-.7412146 0-1.2890607-.2040995-1.6435547-.6123047-.311525-.3544939-.4082037-.768064-.290039-1.2407226.0322267-.1396492.1289054-.2658686.290039-.3786622.1611336-.1127935.3652332-.2927233.6123047-.5397949.6982457-.7304724 1.0634764-1.5844677 1.0957031-2.5620117.0214845-.6660189-.3867145-.9990234-1.2246093-.9990234-.9023483 0-1.8476514.5048777-2.8359375 1.5146484-1.4394604 1.4716871-2.4545869 3.3569221-3.0454102 5.6557617-.5156276 1.9980569-.4189489 3.4589798.2900391 4.3828125.4189474.5371121.9882776.8056641 1.7080078.8056641 1.2138732 0 2.38476-.4296832 3.5126953-1.2890625.3437517-.268556.6230458-.5424791.8378906-.8217774.2148448-.2792982.4135733-.4189453.5961914-.4189453s.3356928.0886222.4592285.2658692c.1235358.177247.1853028.4055162.1853028.6848144 0 .6337923-.2846652 1.2568329-.8540039 1.8691406-1.4609448 1.3964918-3.2172749 2.0947268-5.269043 2.0947268-1.7509853 0-3.1044874-.499507-4.0605469-1.498535-.9453172-.9882865-1.3964846-2.395499-1.3535156-4.22168zm16.9189453 4.463379c-.4511741-.4296898-.8056628-.9748503-1.0634766-1.6354982-.2578138-.6606478-.3920898-1.4421341-.402832-2.3444824s.0993641-1.8154251.3303223-2.7392578c.2309582-.9238328.5585916-1.8154254.9829101-2.6748047.4243186-.8593793.9345674-1.6650353 1.5307617-2.4169922.5961944-.7519569 1.2541468-1.4072238 1.973877-1.9658203 1.5683672-1.203131 3.1957923-1.8046875 4.8823242-1.8046875 2.2129017 0 3.7114219.9721583 4.4956055 2.9165039.5585965 1.4072336.5908228 3.1098533.0966797 5.1079102-.4511742 1.8369232-1.2783143 3.5234298-2.4814453 5.0595703-1.1923888 1.5361405-2.5996013 2.6264617-4.2216797 3.2709957-.8164104.322268-1.6193808.483399-2.4089356.483399-.7895547 0-1.4931609-.10205-2.1108398-.306153-.6176789-.204102-1.1520974-.520993-1.6032715-.950683zm3.0776367-7.8149415c-.3222672.7949258-.5773916 1.6113239-.7653808 2.4492187-.1879893.8378948-.2766114 1.6301232-.2658692 2.376709.0107423.7465858.1262196 1.3320291.3464356 1.7563477.2202159.4243185.5773901.6364746 1.0715332.6364746s.9802222-.1691878 1.4582519-.5075684c.4780298-.3383806.9426247-.7868624 1.3937989-1.345459.4511741-.5585965.8754862-1.2031213 1.2729492-1.9335937.3974629-.7304724.7465805-1.4931601 1.0473633-2.288086.6552767-1.7295008.972168-3.2656182.9506835-4.6083984 0-1.1816465-.2416968-1.9335921-.7250976-2.2558594-.1933604-.1289069-.4645979-.1933594-.8137207-.1933594-.3491229 0-.7492653.1584457-1.2004395.4753418-.4511741.3168962-.9023415.7438938-1.3535156 1.2810059s-.8862284 1.1655238-1.3051758 1.8852539c-.4189474.7197302-.7895491 1.4770468-1.1118164 2.2719727zm21.7690433 4.6889648c.311525 0 .467285.2094706.467285.628418 0 .3544939-.107421.6982405-.322266 1.03125-.29004.62305-.870113 1.2138647-1.740234 1.7724607-.988286.633792-1.981929.950684-2.9809572.950684-1.7295008 0-2.825193-.77343-3.2871094-2.3203127-.5478543-1.8369232.2739149-5.7309273 2.4653321-11.6821289-1.2353578-.1074224-1.9067378-.322264-2.0141602-.6445312-.0322267-.0966802-.0483398-.2014155-.0483398-.314209 0-.1127936.0510248-.244384.1530761-.3947754s.2336418-.2954095.3947754-.4350586c.3759785-.311525.7573223-.4672852 1.144043-.4672852h1.2729492c1.1601618-2.717787 1.9873018-4.2646465 2.4814458-4.640625.236329-.1718758.49951-.2578125.78955-.2578125.290041 0 .531738.0375973.725098.112793s.365234.1826165.515625.3222656c.343752.3222673.515625.6821269.515625 1.0795899 0 .2148448-.064453.4619126-.193359.7412109l-1.192383 2.5942383h.386719c.666018 0 1.203122-.0053711 1.611328-.0161133l.918457-.0161133c.204102-.0107422.459227-.0161133.765381-.0161133.306153 0 .459228.1127919.459228.3383789 0 1.4179759-1.675764 2.1269532-5.027344 2.1269532h-.128906l-1.095703 2.8359375c-1.2353578 3.3515792-1.8530274 5.6987237-1.8530274 7.0415039 0 .3759784.0859366.6687001.2578125.8781738s.4941383.314209.9667969.314209c.472659 0 .902342-.0805656 1.289062-.2416992.386721-.1611336.725097-.3410635 1.015137-.5397949.290041-.1987315.539794-.3786614.749268-.539795.209473-.1611336.389403-.2416992.539795-.2416992zm11.843261 0c.311525 0 .467286.2094706.467286.628418 0 .3544939-.107421.6982405-.322266 1.03125-.290041.62305-.870113 1.2138647-1.740234 1.7724607-.988287.633792-1.981929.950684-2.980957.950684-1.729501 0-2.825193-.77343-3.28711-2.3203127-.547854-1.8369232.273915-5.7309273 2.465332-11.6821289-1.235358-.1074224-1.906738-.322264-2.01416-.6445312-.032227-.0966802-.04834-.2014155-.04834-.314209 0-.1127936.051025-.244384.153076-.3947754.102052-.1503914.233642-.2954095.394776-.4350586.375978-.311525.757322-.4672852 1.144043-.4672852h1.272949c1.160162-2.717787 1.987302-4.2646465 2.481445-4.640625.23633-.1718758.499511-.2578125.789551-.2578125.290041 0 .531737.0375973.725098.112793.19336.0751957.365233.1826165.515625.3222656.343751.3222673.515625.6821269.515625 1.0795899 0 .2148448-.064453.4619126-.19336.7412109l-1.192382 2.5942383h.386718c.666019 0 1.203123-.0053711 1.611328-.0161133l.918457-.0161133c.204103-.0107422.459227-.0161133.765381-.0161133s.459229.1127919.459229.3383789c0 1.4179759-1.675765 2.1269532-5.027344 2.1269532h-.128906l-1.095703 2.8359375c-1.235358 3.3515792-1.853028 5.6987237-1.853028 7.0415039 0 .3759784.085937.6687001.257813.8781738s.494138.314209.966797.314209c.472658 0 .902342-.0805656 1.289062-.2416992.386721-.1611336.725096-.3410635 1.015137-.5397949.29004-.1987315.539794-.3786614.749267-.539795.209474-.1611336.389404-.2416992.539795-.2416992zm2.626465-1.4179687c.042969-.934575.198729-1.8288532.467285-2.6828614.268556-.8540081.628416-1.6811483 1.07959-2.4814453.451174-.8002969.980222-1.5576136 1.587158-2.2719726.606937-.7143591 1.264889-1.3400852 1.973877-1.8771973 1.536141-1.1494198 3.088371-1.7241211 4.656739-1.7241211 1.836923 0 3.06152.7573167 3.673828 2.2719727.214845.5156275.316894 1.1252406.306152 1.8288574s-.145018 1.3535126-.402832 1.949707-.614988 1.1386694-1.071533 1.6274414-.99902.9265118-1.627441 1.3132324c-.628422.3867207-1.313229.7143542-2.054444.9829102-1.525398.5371121-3.158194.8164061-4.898437.8378906-.042969.1503914-.069825.3759751-.080567.6767578-.010742.3007828.021484.6364728.09668 1.0070801s.204101.7009263.386719.9909668c.38672.6445345.945309.9667969 1.675781.9667969 1.2461 0 2.459955-.3652307 3.641602-1.0957031.418947-.2470716.760008-.502196 1.023193-.7653809s.491454-.3947754.684814-.3947754c.193361 0 .362548.1154774.507569.3464356.14502.2309581.217529.4914536.217529.7814941 0 .5693388-.161131 1.0634745-.483398 1.4824219-1.353523 1.3535226-3.367663 2.0302736-6.042481 2.0302736-1.579109 0-2.846675-.472652-3.802734-1.417969-1.074224-1.0742241-1.579102-2.5351469-1.514649-4.3828124zm9.410157-8.8945313c-1.127936 0-2.212886.7734298-3.254883 2.3203125-.880864 1.3320379-1.589841 2.9111237-2.126953 4.7373047 1.793954-.1826181 3.351555-.8915954 4.672851-2.1269531 1.213873-1.1601621 1.820801-2.2719674 1.820801-3.3354492 0-1.0634819-.370602-1.5952149-1.111816-1.5952149z" fill="url(#c)"/><path d="m45.7109375 126.953125c0-.181642.0395504-.350097.1186523-.505371.079102-.155274.1772456-.285644.2944336-.391113.246095-.228517.5039049-.342774.7734375-.342774.2343762 0 .3515625.120116.3515625.360352 0 .609378.2021465 1.034178.6064454 1.274414.1464851.087891.2988273.131836.4570312.131836s.2929682-.017578.4042969-.052735c.1113287-.035156.2138667-.09082.3076172-.166992.2109385-.169923.3164062-.372069.3164062-.606445s-.0527338-.449706-.1582031-.645996-.2373039-.402831-.3955078-.619629l-.5009766-.703125c-.7031285-.937505-1.0546875-1.801754-1.0546875-2.592774 0-.656253.2783175-1.250973.8349609-1.784179.6328157-.603519 1.444331-.905274 2.4345704-.905274.8671918 0 1.5439428.213865 2.0302734.641602.3984395.345705.5976562.741209.5976562 1.186523 0 .462893-.1757794.83203-.5273437 1.107422-.3164078.246095-.6328109.336915-.9492187.272461-.1406258-.029297-.2490231-.101074-.3251954-.215332-.0761722-.114258-.0908205-.244628-.0439453-.391113.0468753-.146485.0703125-.298828.0703125-.457031 0-.158204-.0292966-.304687-.0878906-.439454-.058594-.134766-.1376948-.249023-.2373047-.342773-.2050791-.19336-.420409-.290039-.6459961-.290039-.225587 0-.4116203.024902-.5581054.074707-.1464852.049805-.2753901.121582-.3867188.215332-.2285168.210939-.3427734.470213-.3427734.777832s.0527338.572753.1582031.79541c.1054693.222658.2358391.445312.3911133.667969s.3237295.448241.5053711.676758c.1816415.228517.348632.468748.5009765.720703.3691425.5918.553711 1.111814.553711 1.560058 0 .448245-.0937491.823241-.28125 1.125-.187501.30176-.4306626.561035-.7294922.777833-.6386751.474611-1.3535117.711914-2.1445313.711914-.7558631 0-1.3535134-.181639-1.7929687-.544922-.3632831-.304689-.5449219-.665037-.5449219-1.081055zm12.7880859-9.606445c-.1289069.134766-.2753898.244628-.4394531.32959-.1640633.084961-.3369131.137695-.5185547.158203-.1816415.020508-.3530265-.007324-.5141601-.083496-.1611336-.076173-.3002924-.18457-.4174805-.325196-.2519544-.29297-.3779297-.588865-.3779297-.887695s.0483394-.522949.1450195-.672363c.0966802-.149415.218261-.270996.3647461-.364746.2812514-.181642.5463855-.272461.7954102-.272461s.4423821.017578.5800781.052734.2651362.09375.3823242.175781c.2871108.193361.4306641.429198.4306641.70752 0 .278321-.0395504.509764-.1186523.694336-.079102.184571-.1831049.347167-.3120118.487793zm-1.8017578 9.509765c.1523445 0 .2285156.099609.2285156.298828 0 .263674-.1201159.536132-.3603515.817383-.3515643.410159-.8232392.615235-1.4150391.615235-.6796909 0-1.1455065-.275388-1.3974609-.826172-.0937505-.193361-.140625-.427733-.140625-.703125s.0483393-.581542.1450195-.918457c.0966802-.336916.2167962-.691405.3603516-1.063477s.3002921-.748533.4702148-1.129394l.4658203-1.107422c.3398455-.826176.5097657-1.371093.5097657-1.634766s-.0278318-.437988-.0834961-.522949c-.0556644-.084961-.1157224-.150879-.1801758-.197754l-.1757813-.123047c-.058594-.041016-.0878906-.112792-.0878906-.215332 0-.102539.0395504-.200683.1186524-.294434.0791019-.09375.1831048-.17578.3120117-.246093.2636732-.134767.5712873-.202149.9228515-.202149.8613325 0 1.2919922.225584 1.2919922.676758 0 .527347-.1376939 1.129391-.4130859 1.806152-.275392.676762-.5097647 1.223143-.703125 1.639161l-.5273438 1.21289c-.3867206.89063-.5800781 1.532225-.5800781 1.924805 0 .257814.128905.386719.3867188.386719.2519543 0 .4423821-.032227.571289-.09668s.222656-.09668.28125-.09668zm8.5429688-5.791992c-.1816416 0-.4394515.174315-.7734375.522949-.3339861.348635-.6240222.666503-.8701172.953614l-.7470703.896484-1.4414063 1.836914c-.3398454.644535-.6064443 1.180662-.7998047 1.608398l-.4746093 1.019532c-.1230475.251954-.2299801.429198-.3208008.531738-.0908208.10254-.2138664.153809-.3691406.153809-.1552743 0-.3046868-.027832-.4482422-.083496-.1435554-.055665-.2680659-.127441-.3735352-.215333-.2226574-.1875-.3339844-.392577-.3339844-.615234 0-.087891.0644525-.260741.1933594-.518555l.3339844-.711914c.1054693-.210938.2285149-.480467.3691406-.808593l.4921875-1.204102c.6914097-1.728524 1.0371094-2.844724 1.0371094-3.348633 0-.269532-.0878898-.468749-.2636719-.597656l-.1757812-.123047c-.0585941-.041016-.0878907-.112792-.0878907-.215332 0-.102539.0395504-.200683.1186524-.294434.0791019-.09375.1831048-.17578.3120117-.246093.2636732-.134767.5288073-.202149.7954102-.202149s.4731438.029297.6196289.087891.2695307.137695.3691406.237305c.2167979.205079.3251953.418944.3251953.641601 0 .222658-.0278318.446776-.0834961.672363-.0556643.225588-.1259761.454101-.2109375.685547-.0849614.231447-.1743159.458495-.2680664.681153-.0937505.222657-.1787106.416014-.2548828.580078l-.1757813.37793c-.0468752.09375-.0585938.123047-.0351562.08789.6503939-.902348 1.078124-1.48242 1.2832031-1.740234l.6152344-.738282c.4511741-.527346.8056628-.875975 1.0634765-1.045898.521487-.351564.9316392-.527344 1.2304688-.527344s.5507802.038086.7558594.114258c.2050791.076172.3837883.18457.5361328.325195.3222672.29883.4833984.679686.4833984 1.142579s-.1054677.946286-.3164062 1.450195c-.2109386.503909-.3940422.912596-.5493164 1.226074s-.303222.631346-.4438477.953613c-.4394553.978521-.6591797 1.690428-.6591797 2.135743 0 .199219.1582016.298828.4746094.298828.246095 0 .4702138-.052734.6723633-.158203.2021494-.10547.3325192-.158204.3911133-.158204.1230475 0 .1845703.061523.1845703.184571 0 .521487-.2665989.958006-.7998047 1.30957-.3574237.240236-.6855454.360352-.984375.360352s-.5463857-.032227-.7426758-.09668c-.19629-.064454-.3706047-.166992-.5229492-.307617-.3457049-.310549-.5185547-.744138-.5185547-1.300782 0-.67969.213865-1.529291.6416016-2.548828.3105484-.697269.5302728-1.174803.6591797-1.432617l.2988281-.624023c.1816415-.375002.2724609-.670898.2724609-.887696s-.1611312-.325195-.4833984-.325195zm12.5419922 5.660156c.1230475 0 .1845703.064453.1845703.19336 0 .503909-.2607396.937498-.7822266 1.300781-.3457048.246095-.6723617.369141-.9799805.369141-.3076187 0-.5522451-.035156-.7338867-.105469-.1816415-.070313-.3457024-.18164-.4921875-.333984-.3281266-.351565-.4921875-.834958-.4921875-1.450196 0-.123047.0234373-.319334.0703125-.588867-.4746117.732426-.8818342 1.248045-1.2216797 1.546875-.6855503.621097-1.356442.931641-2.0126953.931641-1.0371145 0-1.7167952-.468746-2.0390625-1.40625-.1171881-.345705-.1757812-.779295-.1757812-1.300782s.0791007-1.048825.2373047-1.582031c.1582039-.533206.3735338-1.040037.6459961-1.520508s.5888653-.927244.9492187-1.340332.7397441-.771971 1.1381836-1.07666c.855473-.638675 1.6289028-.958008 2.3203125-.958008s1.2451151.281248 1.6611328.84375c1.0195364-3.492205 1.7871068-5.551754 2.3027344-6.178711.2167979-.257813.4453113-.386718.6855469-.386718.3984395 0 .7001942.114256.9052734.342773.0644534.076172.0966797.152343.0966797.228516 0 .076172-.0468745.216796-.140625.421875s-.2314444.53613-.4130859.993164c-.521487 1.37696-.8876943 2.384762-1.0986329 3.023437-.5390652 1.634774-.9023428 2.759763-1.0898437 3.375l-.4833984 1.625977c-.4160178 1.447273-.6240235 2.367185-.6240235 2.759765 0 .392581.1435533.588868.4306641.588868.2636732 0 .4746086-.035156.6328125-.105469l.3339843-.158203c.0644535-.035157.1259763-.052735.1845704-.052735zm-6.038086.544922c.6035187 0 1.294918-.588861 2.0742188-1.766601.8144572-1.218756 1.3828109-2.545892 1.7050781-3.981446-.0234376-.398439-.1904281-.691405-.5009766-.878906-.1054692-.064453-.2651356-.09668-.4790039-.09668-.2138682 0-.4628892.077636-.7470703.232911-.2841811.155274-.559569.364744-.8261719.628418-.2666029.263673-.5156238.572752-.7470703.927246-.2314464.354494-.432128.730955-.6020507 1.129394-.3691425.867192-.553711 1.718258-.553711 2.553223s.2255837 1.252441.6767578 1.252441zm6.8642578-.316406c0-.181642.0395504-.350097.1186524-.505371.0791019-.155274.1772455-.285644.2944336-.391113.246095-.228517.5039049-.342774.7734375-.342774.2343761 0 .3515625.120116.3515625.360352 0 .609378.2021464 1.034178.6064453 1.274414.1464851.087891.2988273.131836.4570312.131836.158204 0 .2929682-.017578.4042969-.052735.1113287-.035156.2138667-.09082.3076172-.166992.2109386-.169923.3164062-.372069.3164062-.606445s-.0527338-.449706-.1582031-.645996-.2373039-.402831-.3955078-.619629l-.5009765-.703125c-.7031286-.937505-1.0546876-1.801754-1.0546876-2.592774 0-.656253.2783176-1.250973.834961-1.784179.6328157-.603519 1.444331-.905274 2.4345703-.905274.8671918 0 1.5439429.213865 2.0302734.641602.3984395.345705.5976563.741209.5976563 1.186523 0 .462893-.1757795.83203-.5273438 1.107422-.3164078.246095-.6328109.336915-.9492187.272461-.1406257-.029297-.2490231-.101074-.3251953-.215332-.0761723-.114258-.0908206-.244628-.0439453-.391113.0468752-.146485.0703125-.298828.0703125-.457031 0-.158204-.0292966-.304687-.0878907-.439454-.058594-.134766-.1376948-.249023-.2373047-.342773-.2050791-.19336-.420409-.290039-.645996-.290039-.2255871 0-.4116204.024902-.5581055.074707s-.2753901.121582-.3867188.215332c-.2285167.210939-.3427734.470213-.3427734.777832s.0527338.572753.1582031.79541c.1054693.222658.2358391.445312.3911133.667969s.3237296.448241.5053711.676758.3486321.468748.5009766.720703c.3691424.5918.5537109 1.111814.5537109 1.560058 0 .448245-.0937491.823241-.28125 1.125-.1875009.30176-.4306626.561035-.7294922.777833-.6386751.474611-1.3535117.711914-2.1445312.711914-.7558632 0-1.3535135-.181639-1.7929688-.544922-.3632831-.304689-.5449219-.665037-.5449219-1.081055zm17.7451172-9.404297c-.1992197.468752-.6181608.703125-1.2568359.703125-.3281267 0-.5888662-.145018-.7822266-.435058-.1933603-.290041-.290039-.609374-.290039-.958008 0-.348635.04248-.645995.1274414-.89209.0849613-.246095.1962883-.483397.3339843-.711914s.2988272-.442382.4833985-.641602c.1845712-.199219.3735342-.374999.5668945-.527343.4218771-.316408.8056623-.47461 1.1513672-.47461.2519544 0 .3896483.067382.4130859.202149.0117188.076172-.041015.17871-.1582031.307617l-.3691406.386718c-.49219.503909-.7382813.949217-.7382813 1.335938 0 .351564.0732415.645995.2197266.883301s.2446287.405761.2944336.505371.0512698.205077.0043945.316406zm6.4687504 4.895508c.656253 1.08399.984375 2.041988.984375 2.874023 0 .966802-.374997 1.763669-1.125 2.390625-.714848.585941-1.558589.878907-2.53125.878907-1.0195367 0-1.7929665-.310544-2.3203129-.931641-.3984395-.474612-.5976562-1.019528-.5976562-1.634766 0-1.113286.6298765-2.074214 1.8896484-2.882812.3984395-.251955.8232399-.46289 1.2744137-.632813-.8203162-1.17188-1.2304684-2.334955-1.2304684-3.489257 0-1.177741.3867149-2.173824 1.1601564-2.988282.744144-.791019 1.664057-1.192382 2.759766-1.204101 1.013676-.011719 1.810543.287106 2.390624.896484.539066.556644.808594 1.277339.808594 2.162109 0 1.962901-1.145496 3.477534-3.436523 4.543946zm-.641602-1.001953c1.441414-.761723 2.162109-1.872063 2.162109-3.331055 0-.779301-.172849-1.353514-.518554-1.722656-.316408-.339846-.723631-.483399-1.22168-.430664-.457033.035156-.852537.249021-1.186523.641601-.363283.421877-.544922.925779-.544922 1.511719 0 .544925.096678 1.037107.290039 1.476563.19336.439455.36914.791014.527344 1.054687zm-1.107422 1.96875c-1.3535222.462893-2.0302732 1.274408-2.0302732 2.43457 0 .79102.3017547 1.330077.9052734 1.617188.2050788.09375.4262688.140625.6635738.140625.237306 0 .452636-.041016.645996-.123047.193361-.082032.36914-.199218.527344-.351563.345705-.333986.518555-.72656.518555-1.177734 0-.404299-.089355-.770506-.268066-1.098633-.178712-.328127-.344238-.594725-.496583-.799805zm6.152344 4.728515c-.175782-.169922-.306152-.364745-.391113-.584472-.084962-.219728-.127442-.437987-.127442-.654785s.038086-.42041.114258-.61084c.076172-.190431.17871-.355957.307617-.496582.29297-.316408.6416-.47461 1.045899-.47461.281251 0 .474609.055664.580078.166993.181641.187501.222657.348632.123047.483398-.257814.357424-.392578.656249-.404297.896484-.011719.240236 0 .404297.035156.492188s.084961.158203.149414.210937c.111329.09961.249023.149414.413086.149414.796879 0 1.56152-.471675 2.293945-1.415039.732426-.943364 1.315428-2.206046 1.749024-3.788086-.380861.357424-.824705.644531-1.331543.861329-.506839.216798-.966795.325195-1.379883.325195s-.764647-.048339-1.054687-.14502c-.290041-.09668-.552245-.259276-.786622-.487793-.527346-.503908-.791015-1.253901-.791015-2.25 0-1.699227.547846-3.134759 1.643554-4.30664.667973-.714848 1.417965-1.20703 2.25-1.476563.410159-.134766.848143-.202148 1.313965-.202148.465823 0 .88037.092284 1.243653.276855.363283.184572.659178.429198.887695.733887.433596.568362.650391 1.306636.650391 2.214844v.158203c0 .052735-.00293.105468-.008789.158203-.175783 2.917983-.928705 5.370107-2.258789 7.356445-.843755 1.259772-1.810542 2.129881-2.900391 2.610352-.550784.240235-1.066404.360351-1.546875.360351s-.858397-.051269-1.133789-.153808c-.275392-.10254-.503906-.238769-.685547-.408692zm5.52832-12.076171c-.480471 0-.966794.237302-1.458984.711914-.720707.691409-1.20996 1.658197-1.467774 2.90039-.082031.39258-.123046.74121-.123046 1.045899s.019042.55371.057128.74707c.038087.19336.098145.363281.180176.509766.169923.328126.410155.492187.720703.492187.310549 0 .597655-.061523.861329-.18457.263673-.123048.514158-.295898.751464-.518555s.455566-.487791.654786-.79541c.199219-.307619.372069-.645994.518554-1.015137.310549-.773441.46582-1.615718.46582-2.526855 0-.911138-.386714-1.366699-1.160156-1.366699z" fill="url(#d)"/></g><g transform="matrix(1 0 0 -1 74 90)"><path d="m39.9383596 40.5278621c-5.7238687-4.6056658-6.6644823-5.4320677-7.6557403-6.7521028-1.345241-1.7737149-1.7899619-3.1747079-1.8712039-5.855257l-.0606677-1.7332359-1.2434248-1.0382594c-.6773684-.5745911-1.2439523-1.0782126-1.2439523-1.1186916-.0100233-.0704439 2.9732465-2.6001168 3.0539609-2.6001168.0200468 0 .4753185.4936332.991258 1.1087033l.950637 1.1087032h.6066773c.3339363 0 1.2033313.0504673 1.941895.1009346 2.7405989.2118575 4.5405841 1.058236 6.5937912 3.1142524.7380362.7349299 9.223078 11.0244743 9.617682 11.6695093.1213355.1913551.1213355.2418224-.0506444.4331776-.1012887.1109229-.2526943.1913551-.3239129.1813668-.0706911-.0199766-2.568619-2.2773365-5.5518888-5.0188668-3.4184949-3.1442173-5.501772-4.9988902-5.6531776-5.0188669-.2732686-.0404789-.5159395.3022781-.3840531.5241239.040621.0704439 2.3259481 2.5296729 5.0770979 5.4620327 2.7405988 2.9328855 5.0058792 5.3915888 5.0364768 5.4620327.0606678.1514019-.2426709.5241238-.4246741.5241238-.0706911 0-2.5786424-2.2673481-5.5724631-5.0388434-3.7418802-3.4564837-5.5218187-5.0388435-5.6737518-5.0388435-.242671 0-.4853419.3327687-.3740298.5241238.040621.0604557 2.3359715 2.5296729 5.107168 5.4925234 2.7812199 2.9628505 5.0465002 5.4420561 5.0465002 5.5125 0 .1913552-.3740297.4936332-.5259628.4331776-.0706911-.0304907-2.5686191-2.3078271-5.5418655-5.0488318-3.761927-3.476986-5.4811977-4.9988902-5.6331308-4.9988902-.1820032 0-.4346975.2518108-.4346975.4331776 0 .0304906 2.2753037 2.4891939 5.0665469 5.4725467 2.7912433 2.9933411 5.0871213 5.4925234 5.1171914 5.5629673.0606677.1408879-.2426709.5241238-.4146508.5241238-.0611953.0005257-2.5691466-1.9745327-5.5729906-4.3832944z" fill="url(#e)"/><path d="m.21312838 43.7830023c1.98198844-6.4803154 5.52181874-12.3655373 10.80096652-17.9789719.7886806-.8363902 2.2352103-2.116472 4.6925172-4.1724883 2.7205522-2.2573599 3.5498537-3.0033295 3.5498537-3.174708 0-.302278.0506444-.3327687 1.5673377-1.0277453 2.6398377-1.1891355 4.6017794-2.5396612 6.5837678-4.5047313 1.3853345-1.390479 2.2352103-2.41875 4.2878898-5.20023367 1.8305829-2.48919392 2.4678579-3.27511682 3.5192561-4.31337617 2.3159247-2.28785046 4.4904673-3.1542056 8.02977-3.18469626 1.1526869-.00998832 1.1832846 0 1.6079587.29228972.6272516.44369159.8999926 1.01775701.8999926 1.92511682 0 .84637851-.2832919 2.40876169-.6066773 3.36606309-.3339363.99778037-.8699225 1.94509346-1.4460022 2.55963785-.4953652.52412383-30.8149877 25.78931072-37.38873219 31.16092292-4.47991638 3.6583528-6.24983153 5.0793224-6.3004759 5.0793224-.02954255 0 .06119528-.372722.20257747-.8264019zm3.97452779-4.4642523c3.54985367-2.9023949 6.35112023-5.210222 12.23694543-10.1181659 3.7519036-3.1242406 6.8464855-5.6938668 6.8670597-5.7143691.0706911-.0604557-1.0113047-1.3300234-1.7799385-2.0660047-1.0213281-.9778038-1.5066699-1.3405374-1.6686264-1.2396028-.0706911.0404789-1.617982 1.320035-3.4385416 2.8419392-3.3172061 2.7515187-4.3179599 3.7287968-6.3305459 6.0970795-2.55859572 3.0033294-5.1984334 7.1453271-6.64443561 10.3804906-.2933153.6650117-.27326857.6650117.75808288-.1813668zm37.17665893-32.65286215c.6979426-.29228972.7987038-1.26956776.1719798-1.76372664-.4652951-.36273364-1.2339289-.20134345-1.50667.31226636-.3033386.59456776-.0912653 1.19912383.5053886 1.4614486.3946041.1713785.4046274.1713785.8293016-.00998832z" fill="url(#f)"/><path d="m16.1924816 14.5471963c-4.5305608-3.6988318-7.80767343-6.59123836-8.54570959-7.55852808-1.45655312-1.89462616-1.48662322-4.23294392-.09126537-5.78481308 1.02132809-1.11869159 2.86193436-1.51191589 4.48044396-.93732477 1.2439523.43317757 2.1238981 1.20911215 4.8845437 4.33335281 2.2046127 2.49918224 7.2917339 8.61676402 7.2917339 8.77762852 0 .1109229-1.8606529 1.3100467-2.8318642 1.8341705-.4753185.2518108-1.30462.6350468-1.8406063.8563669l-.980707.4032126z" fill="url(#g)"/></g></g></svg>