<svg height="72" viewBox="0 0 206 72" width="206" xmlns="http://www.w3.org/2000/svg"><g fill="none" fill-rule="evenodd"><path d="m172.477671 50.0745205c.366754-.5828316.770197-1.1783383 1.210329-1.7865205 1.680008-2.400012 3.719988-4.295993 6.12-5.688 2.544013-1.5840079 4.703991-2.376 6.48-2.376 1.92001 0 2.88.9359906 2.88 2.808 0 2.592013-1.295987 5.7599813-3.888 9.504-1.008005 1.3440067-1.919996 2.3999962-2.736 3.168 3.168016 0 6.095987-1.7759822 8.784-5.328.240001-.2400012.36-.156002.36.252s-.095999.7319988-.288.972c-2.448012 3.408017-5.231984 5.112-8.352 5.112-.432002 0-.863998-.0239998-1.296-.072-2.688013 2.4960125-5.711983 3.744-9.072 3.744-1.96801 0-2.952-.8399916-2.952-2.52 0-1.238009.270259-2.569372.810782-3.9940977-3.797157 4.3907511-7.259391 6.5860977-10.386782 6.5860977-1.152006 0-1.728-.4559954-1.728-1.368 0-1.1520058.935991-3.5999813 2.808-7.344l3.888-8.712c-3.683885 4.4784481-6.009002 7.3127875-6.975384 8.5030572-.087327.1327259-.186198.2743734-.296616.4249428-4.416022 5.6640283-8.399982 8.496-11.952 8.496-1.152006 0-1.728-.4559954-1.728-1.368 0-1.1520058.935991-3.5999813 2.808-7.344l3.888-8.712c-3.878698 4.7152801-6.251119 7.6079641-7.117299 8.6780976-1.752793 2.3731655-3.91634 4.4724463-6.490701 6.2979024-2.640013 1.8720094-5.327986 2.808-8.064 2.808-3.552018 0-5.328-1.295987-5.328-3.888 0-2.0640103 1.103989-4.9199818 3.312-8.568 1.248006-1.9680098 3.023988-3.8039915 5.328-5.508s4.511989-2.556 6.624-2.556 3.168 1.0079899 3.168 3.024c0 2.1120106-.827992 3.7079946-2.484 4.788s-3.52799 1.9439968-5.616 2.592-3.923992.972-5.508.972c-.720004 1.8720094-1.08 3.611992-1.08 5.22s.98399 2.412 2.952 2.412c.720004 0 1.655994-.2159978 2.808-.648 1.872009-.6240031 3.81599-1.8239911 5.832-3.6 1.576939-1.3892079 2.933595-2.749031 4.069994-4.0794941 3.243535-4.0546973 5.486848-6.8948377 6.730006-8.5205059-.432002 0-1.727989.1199988-3.888.36-.480002 0-.300004-.3839962.54-1.152s1.427998-1.152 1.764-1.152h.504l2.232.072c1.872009-2.5440127 3.743991-5.8799794 5.616-10.008.432002-.0480002 1.103995-.3239975 2.016-.828s1.571998-.959998 1.98-1.368.671999-.612.792-.612.18.0599994.18.18-.191998.3959978-.576.828-1.331992 1.8599879-2.844 4.284-2.891994 4.931987-4.14 7.524h5.832c.480002 0 .744.0719993.792.216s-.107998.2759994-.468.396-.695998.2279995-1.008.324-.995995.1919995-2.052.288c-2.352012.1440007-3.803997.611996-4.356 1.404s-1.499993 2.8199837-2.844 6.084c-2.496012 6.0480302-2.880009 9.072-1.152 9.072 1.488007 0 4.22398-2.303977 8.208-6.912l1.368-1.728c.004195.0062923.008298.0127451.01231.0193582 2.71832-3.4048248 4.634201-5.8352572 5.74769-7.2913582-.432002 0-1.727989.1199988-3.888.36-.480002 0-.300004-.3839962.54-1.152s1.427998-1.152 1.764-1.152h.504l2.232.072c1.872009-2.5440127 3.743991-5.8799794 5.616-10.008.432002-.0480002 1.103995-.3239975 2.016-.828s1.571998-.959998 1.98-1.368.671999-.612.792-.612.18.0599994.18.18-.191998.3959978-.576.828-1.331992 1.8599879-2.844 4.284-2.891994 4.931987-4.14 7.524h5.832c.480002 0 .744.0719993.792.216s-.107998.2759994-.468.396-.695998.2279995-1.008.324-.995995.1919995-2.052.288c-2.352012.1440007-3.803997.611996-4.356 1.404s-1.499993 2.8199837-2.844 6.084c-2.496012 6.0480302-2.880009 9.072-1.152 9.072 1.488007 0 4.22398-2.303977 8.208-6.912zm-65.735272-.3236893c2.913259-3.6456706 5.18844-6.6532562 6.825601-9.0228312 2.400012-.3360017 3.791998-.6719983 4.176-1.008s.624-.504.72-.504.156.095999.18.288-.107999.4559983-.396.792-1.895985 3.1919731-4.824 8.568c1.296006-1.9680098 2.93999-3.9119904 4.932-5.832s3.695993-2.88 5.112-2.88 2.339998.599994 2.772 1.8c.192001.2400012.288.5039986.288.792s-.048.6599977-.144 1.116-.192.8279986-.288 1.116c-.528003 1.200006-.911999 1.9199988-1.152 2.16-.144001.2400012-.383998.3839998-.72.432l-.144-.144c.096-.5280026.144-1.0079978.144-1.44 0-2.208011-.683993-3.312-2.052-3.312s-3.311987 1.4519855-5.832 4.356-4.427994 6.0119834-5.724 9.324l-1.512 4.032c-.288001 0-.863996.1439986-1.728.432s-1.32.432-1.368.432c-.240001 0-.252001-.2159978-.036-.648s.623997-1.3679928 1.224-2.808 1.331996-3.263989 2.196-5.472c1.680008-4.2240211 2.807997-7.0079933 3.384-8.352-2.287938 2.4606126-4.381731 4.921192-6.28143 7.3817979-.112873.1838374-.251063.3872379-.41457.6102021-4.416022 5.6640283-8.3999822 8.496-11.952 8.496-1.1520058 0-1.728-.4559954-1.728-1.368 0-1.1520058.9359906-3.5999813 2.808-7.344l3.888-8.712c-4.8960245 5.9520298-7.3919995 8.9999993-7.488 9.144-.3360017.4800024-.504.4320029-.504-.144 0-.3840019.1199988-.7199986.36-1.008 3.2640163-4.0800204 5.5199938-6.9359918 6.768-8.568-.4320022 0-1.7279892.1199988-3.888.36-.4800024 0-.3000042-.3839962.54-1.152s1.4279983-1.152 1.764-1.152h.504l2.232.072c1.872009-2.5440127 3.743991-5.8799794 5.616-10.008.432002-.0480002 1.103995-.3239975 2.016-.828s1.571998-.959998 1.98-1.368.671999-.612.792-.612.18.0599994.18.18-.191998.3959978-.576.828-1.331992 1.8599879-2.844 4.284-2.891994 4.931987-4.14 7.524h5.832c.480002 0 .744.0719993.792.216s-.107998.2759994-.468.396-.695998.2279995-1.008.324-.995995.1919995-2.052.288c-2.352012.1440007-3.803997.611996-4.356 1.404s-1.4999933 2.8199837-2.844 6.084c-2.4960125 6.0480302-2.8800086 9.072-1.152 9.072 1.4880074 0 4.22398-2.303977 8.208-6.912l1.368-1.728c.004926.0073892.009726.0149996.014399.0228312zm-34.3063999 5.4035908c-.2448466.2695645-.5021796.5487571-.7719991.837578-.9120046 1.008005-2.171992 2.0039951-3.78 2.988s-3.0719934 1.476-4.392 1.476-1.98-.4559954-1.98-1.368c0-.8640043.2399976-1.8239947.72-2.88.3360017-.7680038 2.2559825-4.847963 5.76-12.24-2.3586038 2.5366116-4.5108847 5.073188-6.4568979 7.6097945-.0638497.1274015-.1435504.2548032-.2391021.3822055-4.8480242 6.6720334-8.975983 10.008-12.384 10.008l-2.448-.504c-3.6480182-1.5840079-7.4879798-6.7919558-11.52-15.624-.8160041-1.7760089-1.2479998-2.7119995-1.296-2.808.9120046-1.2480062 1.5599981-1.872 1.944-1.872h2.484c1.2720064 0 2.411995-.0239998 3.42-.072s2.2559926-.2159986 3.744-.504 2.6159962-.7439969 3.384-1.368c2.0640103-1.5360077 3.6239947-3.8639844 4.68-6.984.4320022-1.200006.648-2.3399946.648-3.42s-.1919981-2.123995-.576-3.132c-.9600048-2.3520118-2.8319861-3.528-5.616-3.528-2.6400132 0-4.4159954.5639944-5.328 1.692s-1.8359953 2.495992-2.772 4.104-1.7159969 2.9999941-2.34 4.176-1.4279951 2.75999-2.412 4.752-1.5959988 3.2279976-1.836 3.708-.5999976 1.1639956-1.08 2.052-.9599976 1.7639957-1.44 2.628-1.0319969 1.895994-1.656 3.096-1.1759976 2.3279947-1.656 3.384-.9359978 2.0639952-1.368 3.024c-.9600048 2.1600108-1.2720017 3.5519969-.936 4.176.192001.4320022-.0959962.5040014-.864.216-.0960005 0-.239999-.0359996-.432-.108s-.3479994-.1199999-.468-.144-.2879989-.0479999-.504-.072-.3959993-.036-.54-.036c-.5280026 0-1.4159938.3839962-2.664 1.152-1.7760089 1.1040055-2.963997 1.656-3.564 1.656s-.9-.1439986-.9-.432c0-.0960005.0479995-.1679998.144-.216 1.9680098-.3360017 3.5039945-1.4879902 4.608-3.456 2.1600108-3.6480182 4.043992-6.971985 5.652-9.972s3.3479906-6.203983 5.22-9.612 3.1439966-5.7839933 3.816-7.128 1.2719974-2.5799944 1.8-3.708.887999-1.8599983 1.08-2.196c.6240031-1.1520058 2.039989-2.1119962 4.248-2.88-.7200036-.0480002-1.9679911-.072-3.744-.072s-4.4879818.3359966-8.136 1.008c-4.992025.9120046-7.488 2.9039846-7.488 5.976 0 1.1520058.3839962 1.9679976 1.152 2.448.2400012.0960005.2280013.2279992-.036.396s-.5279987.1680008-.792 0-.7079969-.7079954-1.332-1.62c-.9600048-1.4880074-1.44-2.8079942-1.44-3.96 0-2.9760149 2.7839722-4.6559981 8.352-5.04.9120046-.0480002 2.2319914-.072 3.96-.072l10.656-.072c.7680038.0480002 1.5359962.072 2.304.072l2.88-.072c1.5360077 0 3.1199918.2639974 4.752.792 3.2160161 1.008005 4.824 3.3839813 4.824 7.128 0 2.6400132-.5879941 4.7279923-1.764 6.264s-2.5439922 2.8679944-4.104 3.996-3.7319861 2.0279966-6.516 2.7-5.4959868 1.0799993-8.136 1.224c1.9680098 4.3680218 4.4639849 8.4239813 7.488 12.168 1.8240091 2.208011 3.7919894 3.312 5.904 3.312 3.2160161 0 6.8159801-2.6159738 10.8-7.848.0950634-.1307121.1783596-.2275944.2498889-.2906467 3.1814367-3.9598538 5.6421177-7.1989418 7.3821111-9.7173533 2.400012-.3360017 3.8399976-.7199978 4.32-1.152s.7439998-.4560019.792-.072c0 .192001-.1079989.4199987-.324.684s-2.1719815 3.8759652-5.868 10.836c-1.6320082 3.0720154-2.448 5.1839942-2.448 6.336 0 .6720034.3359966 1.008 1.008 1.008 1.4880074 0 4.1759806-2.303977 8.064-6.912l1.0938114-1.2429675c.0602505-.0882482.1276467-.1779257.2021886-.2690325.8160041-.8640043 2.6879854-3.4799782 5.616-7.848 1.2480062-1.392007 2.7359914-2.088 4.464-2.088 2.6880134 0 4.0559998.9359906 4.104 2.808 0 .9600048-.3359966 2.1119933-1.008 3.456-.2400012.4800024-.5279983.72-.864.72-.192001 0-.2400005-.1679983-.144-.504s.144-.7799972.144-1.332-.1439986-1.1639966-.432-1.836c-.4800024-1.2960065-1.2599946-1.944-2.34-1.944s-1.9439968.3239968-2.592.972-.972 1.2359974-.972 1.764.0359996.9719982.108 1.332.3479976.8519969.828 1.476 1.0559966 1.2719966 1.728 1.944c1.8240091 1.9200096 2.736 3.6119927 2.736 5.076s-.3839962 2.7479945-1.152 3.852c-1.6320082 2.400012-3.9359851 3.6-6.912 3.6-1.5360077 0-2.9759933-.3119969-4.32-.936-1.6800084-.7680038-2.52-1.9439921-2.52-3.528 0-.4684178.113332-1.0596056.3399991-1.773578zm1.8073442-2.0926424c.0048786.0156845.0090975.0324246.0126567.0502204-.3360017 1.008005-.504 1.8479966-.504 2.52 0 1.4880074 1.0319897 2.8559938 3.096 4.104.5760029.3840019 1.1999966.576 1.872.576 2.3520118 0 3.8759965-.4199958 4.572-1.26s1.044-1.859994 1.044-3.06-.7679923-2.6159918-2.304-4.248c-1.8240091-2.0160101-2.736-3.719993-2.736-5.112-.5760029.8160041-1.7759909 2.3519887-3.6 4.608-.1654031.2274292-.2996359.3658022-.402699.415119-.2741708.4104269-.6241566.8793136-1.0499577 1.4066606zm55.0206567-2.8297796h1.62c.792004 0 1.739994-.1679983 2.844-.504 2.736014-.8160041 4.511996-2.3519887 5.328-4.608.240001-.6720034.36-1.307997.36-1.908s-.191998-1.0319987-.576-1.296-.719999-.396-1.008-.396c-3.120016.0480002-5.975987 2.9519712-8.568 8.712zm56.448-7.128c0-1.1520058-.431996-1.728-1.296-1.728-.288001 0-.839996.1559984-1.656.468s-1.835994 1.1039936-3.06 2.376-2.387994 2.8919902-3.492 4.86c-2.06401 3.408017-3.096 5.9399917-3.096 7.596s.431996 2.484 1.296 2.484c.672003 0 1.415996-.2279977 2.232-.684s1.463998-.9239976 1.944-1.404c1.488007-1.5840079 3.047992-3.7319864 4.68-6.444s2.448-5.2199885 2.448-7.524z" fill="#fff"/><g fill-rule="nonzero"><path d="m72.5125792 0c-1.5782478 3.75422499-1.5782478 7.6749375 0 11.7621375 2.3673716 6.1308001 6.2262323 7.2110131 7.3394842 13.0867556.742168 3.9171616-1.3081444 7.6341973-6.1509371 11.1511069 3.7356177-3.526119 4.4968084-7.2431546 2.2835721-11.1511069-3.3198544-5.8619285-4.4877189-5.248753-6.432539-9.9399623-1.2965467-3.1274729-.3097401-8.09711648 2.9604198-14.9089308z" fill="#dc1717"/><path d="m67.504443 12c-1.125279 2.6377966-1.125279 5.3925707 0 8.2643225 1.6879185 4.3076277 6.5842858 5.0666078 7.3780262 9.1950267.5291603 2.7522792-.7285133 4.9324962-3.7730209 6.5406508 1.5780212-1.6146253 1.5780212-3.7948422 0-6.5406508-2.3670317-4.1187129-4.3291203-3.6878831-5.7157627-6.9840243-.9244282-2.1974275-.2208424-5.6892025 2.1107574-10.4753249z" fill="#417505"/><path d="m11.5 67h172.5" stroke="#417505"/><path d="m13.5 65.25h172.5" stroke="#d0021b"/></g></g></svg>