<svg height="200" viewBox="0 0 200 200" width="200" xmlns="http://www.w3.org/2000/svg" xmlns:xlink="http://www.w3.org/1999/xlink"><defs><linearGradient id="a" x1="8.990765%" x2="87.913988%" y1="-4.372863%" y2="100%"><stop offset="0" stop-color="#6e4f50"/><stop offset="1" stop-color="#c67649"/></linearGradient><path id="b" d="m50.5966797 99.6386719c0-1.6842532-1.1129446-2.5263672-3.3388672-2.5263672-1.3964914 0-2.8098887.4231728-4.2402344 1.2695312-.4147156.245444-.7384428.4718414-.9711914.6791993-.2327485.2073578-.4549143.3110351-.6665039.3110351s-.4147126-.0528966-.609375-.1586914-.3681633-.2390942-.5205078-.3999023c-.5585965-.6178417-.4993523-1.2145154.1777344-1.7900391 1.0156301-.8717492 2.699858-1.434569 5.0527344-1.6884766.4739607-.0507815 1.0748661-.0761718 1.8027343-.0761718s1.495927.1311835 2.3041992.3935547c.8082723.2623711 1.4874647.6178362 2.0375977 1.0664062 1.1002659.9056035 1.6503906 2.0608654 1.6503906 3.46582 0 1.667326-.7617111 3.186517-2.2851562 4.557618-1.3203191 1.201828-2.8818269 2.060869-4.6845703 2.577148.4908878.406252.9521462.990231 1.383789 1.751953l1.015625 1.81543c.8886763 1.650399 1.6842413 2.547525 2.3867188 2.691406.2454439.042318.4993476.033854.7617187-.025391s.4337561-.086751.5141602-.082519c.080404.004232.1354165.074055.165039.209473.0296226.135417-.0063471.304686-.1079101.507812s-.2666004.393554-.4951172.571289c-.5332058.423179-1.1171843.611491-1.7519531.564941-.6347688-.046549-1.1489238-.177733-1.5424805-.393554-.3935566-.215822-.7447901-.488768-1.0537109-.818848s-.5839832-.69824-.8251953-1.104492c-.2412122-.406252-.4633779-.820961-.6665039-1.244141l-.5712891-1.24414c-.1777353-.406252-.3427727-.75537-.4951172-1.047364-.1523445-.291993-.2835281-.558592-.3935547-.799804s-.2327467-.459146-.368164-.653809c-.2877619-.440106-.6559223-.7194-1.1044922-.83789-1.7773527 4.570335-3.5843008 7.17708-5.4208985 7.820312-.1523445.059245-.3068026.088867-.4633789.088867s-.2983392-.027506-.425293-.082519c-.1269537-.055014-.2327469-.124837-.3173828-.209473-.1777352-.160808-.2666015-.338541-.2666015-.533203 0-.194663.0634759-.338541.1904297-.431641 1.2695376-.92253 2.6787032-3.61391 4.227539-8.074219l.7617188-2.145507c.8717491-2.471367 1.6080699-3.9947891 2.2089844-4.5703128.2115895-.1608081.4316394-.241211.6601562-.241211s.427408.0359697.5966797.1079102.3173822.1629226.4443359.2729492c.2877619.2539075.4316406.512043.4316406.7744141 0 .2623713-.0571283.4972323-.1713867.7045903-.1142584.207357-.2433261.497231-.387207.869628-.4147156 1.083339-.736327 1.950844-.9648437 2.602539l-.647461 1.828126c1.8027434-.236981 3.3981051-.94368 4.7861328-2.120118 1.4642001-1.235683 2.1962891-2.636385 2.1962891-4.2021481zm3.6435547 10.9179691c.0338543-.736332.1565744-1.440915.368164-2.11377s.4951154-1.324541.850586-1.955078c.3554705-.630537.7722958-1.227211 1.2504883-1.790039s.9965792-1.055825 1.5551757-1.479004c1.2102925-.905603 2.4332621-1.358398 3.6689454-1.358398 1.4472728 0 2.4121069.596673 2.8945312 1.790039.1692717.406252.2496745.886553.2412109 1.440918-.0084635.554364-.1142568 1.066403-.3173828 1.536132s-.4845359.897134-.8442383 1.282227c-.3597023.385093-.7871069.729979-1.2822265 1.034668-.4951197.304689-1.0346651.562824-1.6186524.774414-1.2018289.423179-2.4882744.643229-3.859375.660156-.0338543.11849-.0550129.296223-.0634765.533203-.0084636.236981.0169268.501464.0761718.793457.0592451.291994.1608066.552245.3046876.780762.304689.507815.7447887.761719 1.3203124.761719.9817758 0 1.9381464-.287758 2.8691407-.863281.3300798-.194663.5987945-.39567.8061523-.603028s.3872063-.311035.5395508-.311035.285644.090982.3999023.272949c.1142584.181967.1713868.387206.1713868.615723 0 .44857-.1269519.837889-.3808594 1.167969-1.0664116 1.066411-2.6533098 1.599609-4.7607422 1.599609-1.2441468 0-2.2428348-.372392-2.9960937-1.117187-.8463584-.846359-1.2441409-1.997389-1.1933594-3.453125zm7.4140625-7.007813c-.8886763 0-1.7434855.609369-2.5644531 1.828125-.6940139 1.049485-1.2526021 2.293613-1.6757813 3.732422 1.4134185-.143881 2.6406198-.702469 3.6816406-1.675781.956385-.914067 1.4345703-1.790035 1.4345703-2.62793s-.2919892-1.256836-.8759765-1.256836zm4.1132812 9.216797c0-.262371.0571284-.505695.1713867-.72998.1142584-.224285.2560213-.412597.425293-.564942.3554705-.33008.7278626-.495117 1.1171875-.495117.3385434 0 .5078125.173501.5078125.520508 0 .880212.2919893 1.493813.8759766 1.84082.2115896.126954.4316395.19043.6601562.19043.2285168 0 .4231763-.025391.5839844-.076172.1608081-.050782.3089186-.131184.4443359-.241211.3046891-.245444.4570313-.537433.4570313-.875977 0-.338543-.0761711-.649575-.2285156-.933105s-.3427723-.581867-.5712891-.89502l-.7236328-1.015625c-1.0156301-1.354173-1.5234375-2.602533-1.5234375-3.745117 0-.947921.4020142-1.806962 1.2060547-2.577148.914067-.871749 2.0862558-1.307617 3.5166015-1.307617 1.2526105 0 2.2301398.308916 2.9326172.926757.5755237.499352.8632813 1.070635.8632813 1.713868 0 .668623-.2539037 1.20182-.7617188 1.599609-.4570335.35547-.9140602.486654-1.3710937.393555-.203126-.042318-.3597-.145996-.4697266-.311036-.1100266-.165039-.1311852-.353351-.0634766-.564941.0677087-.21159.1015626-.431639.1015626-.660156s-.0423173-.440103-.1269532-.634766c-.0846358-.194662-.1988925-.3597-.3427734-.495117-.2962255-.279298-.6072575-.418945-.9331055-.418945s-.5945627.035969-.8061523.10791c-.2115896.07194-.3977857.175618-.5585938.311035-.3300798.304689-.4951172.679197-.4951172 1.123535s.0761712.82731.2285157 1.148926.3406564.643227.5649414.964844c.2242849.321616.4676093.647459.7299804.977539s.5035797.677081.7236329 1.041015c.5332057.854822.7998046 1.605954.7998046 2.253418 0 .647465-.1354153 1.189126-.40625 1.625-.2708346.435875-.6220681.810383-1.0537109 1.123536-.9225307.68555-1.9550724 1.02832-3.0976563 1.02832-1.0918023 0-1.9550749-.262367-2.5898437-.78711-.5247422-.440106-.7871094-.960609-.7871094-1.561523zm19.0048828-1.091797c.245444 0 .3681641.165038.3681641.495117 0 .279299-.0846346.550129-.2539062.8125-.2285168.490888-.6855435.956378-1.3710938 1.396485-.7786497.499351-1.5615195.749023-2.3486328.749023-1.362637 0-2.2259097-.609369-2.5898438-1.828125-.4316427-1.447273.2158117-4.515276 1.9423828-9.204101-.9733121-.084636-1.5022782-.253905-1.586914-.507813-.0253908-.076172-.038086-.158691-.038086-.247559 0-.088867.0402015-.192545.1206055-.311035.0804041-.11849.1840814-.232747.3110352-.342773.2962254-.245444.5966781-.368164.9013672-.368164h1.0029297c.914067-2.141287 1.5657532-3.3600247 1.9550781-3.6562502.1861988-.1354173.3935535-.203125.6220703-.203125s.4189445.0296221.571289.0888672c.1523446.0592451.2877599.1438797.40625.2539062.2708347.2539076.40625.5374334.40625.850586 0 .1692717-.0507807.3639308-.1523437.5839848l-.9394531 2.043945h.3046875c.5247422 0 .947915-.004232 1.2695312-.012695l.7236328-.012696c.1608081-.008463.3618152-.012695.6030274-.012695.2412121 0 .3618164.088866.3618164.266601 0 1.117194-1.3202993 1.675782-3.9609375 1.675782h-.1015625l-.8632813 2.234375c-.9733121 2.640638-1.4599609 4.489903-1.4599609 5.547851 0 .296226.0677077.526855.203125.691895s.3893211.247558.7617187.247558c.3723977 0 .710936-.063475 1.015625-.190429.3046891-.126954.571288-.268717.7998047-.425293.2285168-.156577.4252922-.298339.5903321-.425293s.3068028-.19043.4252929-.19043zm11.7431641-.050781c0 .77865.2750624 1.167969.8251953 1.167969.3808613 0 .6961251-.059245.9458008-.177735s.416829-.177734.5014648-.177734c.1777353 0 .2666016.093098.2666016.279297 0 .727868-.3808556 1.354164-1.1425781 1.878906-.8040405.550133-1.6249958.685548-2.4628906.40625-.550133-.194662-.9563789-.613604-1.21875-1.256836-.1269538-.33008-.1904297-.630532-.1904297-.901367 0-.440106.0423172-.905597.1269531-1.396485-.7871133 1.608081-1.7646426 2.716794-2.9326172 3.326172-.4654971.236981-.9606094.355469-1.4853516.355469s-.979653-.107909-1.3647461-.32373c-.385093-.215822-.713052-.514159-.9838867-.89502-.5501329-.795577-.7998049-1.794265-.7490234-2.996094.0507815-1.506518.495113-2.983391 1.3330078-4.430664.7701861-1.354173 1.7434837-2.458654 2.9199219-3.313476 1.1764381-.871749 2.2766876-1.307617 3.3007812-1.307617 1.0240937 0 1.8492807.469721 2.475586 1.409179.5839873-.939458 1.1002581-1.409179 1.5488281-1.409179.4824243 0 .8463529.088866 1.0917969.266601.4654971.338543.6305345.634764.4951171.888672-2.1243595 4.350282-3.2161455 7.058588-3.2753906 8.125-.0169271.152345-.0253906.31315-.0253906.482422zm-7.0458984.050781c0 1.01563.3258431 1.523438.977539 1.523438.4993515 0 1.1129521-.423173 1.8408203-1.269532 1.0664116-1.244146 2.0100871-2.919911 2.8310547-5.027343.2623711-.66016.482421-1.32031.6601563-1.980469-.0338544-.575524-.2750629-.998697-.7236328-1.269531-.1523445-.0931-.378742-.139649-.6791993-.139649-.3004572 0-.6516907.110025-1.0537109.330078s-.7913393.520506-1.1679687.901368c-.3766295.380861-.727863.83154-1.053711 1.35205-.325848.520511-.6114896 1.085446-.8569336 1.694824-.5162786 1.303392-.774414 2.598301-.774414 3.884766zm23.1689454.825195c.194662 0 .291992.09733.291992.291993 0 .736331-.363929 1.354164-1.091797 1.853515-.490888.321616-1.066403.482422-1.726562.482422-.54167 0-.956379-.126952-1.244141-.380859-.516279-.457034-.774414-1.015622-.774414-1.675782 0-.837894.351233-2.120108 1.053711-3.846679-1.303392 1.760425-2.217445 2.930498-2.742188 3.510254-.524742.579755-.981768 1.030434-1.371093 1.352051-.846359.694013-1.612302 1.041015-2.297852 1.041015-1.049484 0-1.747719-.452795-2.094726-1.358398-.101563-.279299-.152344-.598794-.152344-.958496 0-.359703.06136-.761717.184082-1.206055s.281412-.907713.476074-1.390137.406249-.977536.634766-1.485351l.685547-1.523438c.880212-1.955088 1.206055-3.114581.977539-3.478516-.101563-.160808-.291991-.321613-.571289-.482421-.101563-.059245-.152344-.162923-.152344-.311036 0-.148112.06136-.289875.184082-.425293.122722-.135417.281412-.253905.476074-.355468.414716-.194663.829425-.291992 1.244141-.291992.414715 0 .729979.044433.9458.1333.215822.088868.391439.201009.526856.336426.279298.279298.418945.588215.418945.926758s-.055012.717283-.165039 1.13623c-.110026.418948-.253905.873859-.43164 1.364746-.177736.490888-.372395.998696-.583985 1.523438-.583987 1.371101-.977538 2.276691-1.180664 2.716797l-.469726.977539c-.262372.583987-.393555.994465-.393555 1.231445 0 .236981.038085.404134.114258.501465.076172.097331.213703.145996.412597.145996.198895 0 .429524-.093098.691895-.279297s.550129-.435871.863281-.749023c.313153-.313153.638996-.674966.977539-1.085449.338544-.410484.668618-.835773.990235-1.275879.634768-.863286 1.100258-1.557289 1.396484-2.082032 1.79428-3.173843 2.75065-4.832681 2.869141-4.976562.270834-.363934.548012-.545898.831543-.545898.28353 0 .531086.031738.742675.095214.21159.063477.393554.154459.545899.27295.35547.262371.469727.524738.342773.787109-2.065114 4.307964-3.178059 7.01627-3.338867 8.125-.042318.380861-.063477.643228-.063477.787109 0 .643233.19466.964844.583985.964844.363934 0 .664387-.065592.901367-.196777.23698-.131186.397786-.196778.482422-.196778zm2.589844 2.196289c-.169272-.126953-.304687-.268716-.40625-.425292-.101563-.156577-.156576-.291992-.165039-.40625-.008464-.114259.01481-.253906.069824-.418946.055013-.16504.129068-.366047.222168-.603027 1.726571-4.248719 2.589843-7.100904 2.589843-8.556641-.02539-.406252-.165037-.694009-.418945-.863281l-.253906-.177734c-.076172-.059245-.116374-.162923-.120606-.311036-.004231-.148112.048665-.289875.158692-.425293.110026-.135417.253905-.253905.431641-.355468.363934-.194663.738442-.291992 1.123535-.291992s.685545.042317.901367.126953c.215821.084636.399901.198892.552246.342773.321616.304689.484538.626301.488769.964844.004232.338543-.033853.681313-.114257 1.02832s-.175618.687661-.285645 1.021973c-.110026.334311-.220051.651691-.330078.952148-.110027.300458-.181966.522623-.21582.666504-.067709.296226-.093099.482422-.076172.558594.203126-.177735.325846-.351236.368164-.520508l.495117-.939453c1.100266-1.980479 2.175125-3.292314 3.224609-3.935547.304689-.177735.670734-.266601 1.098145-.266601s.772297.150226 1.034668.450683.399902.632648.412598.996582c.012695.363934-.012695.666503-.076172.907715s-.158691.46761-.285645.679199c-.279298.473961-.617836.710938-1.015625.710938-.110026 0-.211588-.038086-.304687-.114258l-.279297-.241211c-.279298-.245444-.548013-.368164-.806153-.368164-.258139 0-.571287.169269-.939453.507812-.368166.338544-.751137.774412-1.148925 1.307618-1.337247 1.768889-2.429033 3.749338-3.275391 5.941406l-.558594 1.472656c-.143881.363934-.270833.624186-.380859.780762-.110027.156576-.272948.234863-.48877.234863-.215821 0-.431639-.040201-.647461-.120605-.215821-.080404-.408365-.184082-.577636-.311036zm20.350586-3.072265c0 .77865.275062 1.167969.825195 1.167969.380861 0 .696125-.059245.945801-.177735.249675-.11849.416829-.177734.501464-.177734.177736 0 .266602.093098.266602.279297 0 .727868-.380856 1.354164-1.142578 1.878906-.804041.550133-1.624996.685548-2.462891.40625-.550133-.194662-.956379-.613604-1.21875-1.256836-.126953-.33008-.190429-.630532-.190429-.901367 0-.440106.042317-.905597.126953-1.396485-.787114 1.608081-1.764643 2.716794-2.932617 3.326172-.465498.236981-.96061.355469-1.485352.355469s-.979653-.107909-1.364746-.32373c-.385093-.215822-.713052-.514159-.983887-.89502-.550133-.795577-.799805-1.794265-.749023-2.996094.050781-1.506518.495113-2.983391 1.333008-4.430664.770186-1.354173 1.743483-2.458654 2.919921-3.313476 1.176439-.871749 2.276688-1.307617 3.300782-1.307617 1.024093 0 1.84928.469721 2.475586 1.409179.583987-.939458 1.100258-1.409179 1.548828-1.409179.482424 0 .846353.088866 1.091797.266601.465497.338543.630534.634764.495117.888672-2.12436 4.350282-3.216146 7.058588-3.275391 8.125-.016927.152345-.02539.31315-.02539.482422zm-7.045899.050781c0 1.01563.325843 1.523438.977539 1.523438.499352 0 1.112952-.423173 1.84082-1.269532 1.066412-1.244146 2.010088-2.919911 2.831055-5.027343.262371-.66016.482421-1.32031.660156-1.980469-.033854-.575524-.275062-.998697-.723632-1.269531-.152345-.0931-.378742-.139649-.6792-.139649-.300457 0-.65169.110025-1.053711.330078-.40202.220053-.791339.520506-1.167968.901368-.37663.380861-.727863.83154-1.053711 1.35205-.325848.520511-.61149 1.085446-.856934 1.694824-.516278 1.303392-.774414 2.598301-.774414 3.884766zm20.477539-7.414062c-.262371 0-.634763.251787-1.117187.755371-.482425.503583-.901366.962726-1.256836 1.377441l-1.079102 1.294922-2.082031 2.65332c-.490888.930995-.875975 1.705401-1.155274 2.323242l-.685546 1.472657c-.177736.363934-.332194.619953-.463379.768066-.131186.148113-.308918.222168-.533203.222168s-.440104-.040201-.647461-.120605c-.207358-.080404-.387207-.184082-.539551-.311036-.321616-.270834-.482422-.567055-.482422-.888671 0-.126954.093098-.376626.279297-.749024l.482422-1.02832c.152344-.304689.330077-.694008.533203-1.167969l.710937-1.739258c.998703-2.496757 1.498047-4.109046 1.498047-4.836914 0-.389325-.126952-.677082-.380859-.863281l-.253906-.177734c-.084636-.059245-.126953-.162923-.126953-.311036 0-.148112.057128-.289875.171386-.425293.114259-.135417.264485-.253905.450684-.355468.380861-.194663.763833-.291992 1.148926-.291992s.68343.042317.895019.126953c.21159.084636.389322.198892.533203.342773.313153.296226.469727.605142.469727.926758s-.040202.645343-.120606.971191-.181965.655923-.304687.990235c-.122722.334311-.25179.66227-.387207.983886-.135418.321617-.258138.600911-.368164.837891l-.253907.545899c-.067708.135417-.084635.177734-.050781.126953.939458-1.303392 1.55729-2.141275 1.853516-2.513672l.888672-1.066407c.651696-.761722 1.163735-1.265298 1.536133-1.510742.753259-.507815 1.345701-.761718 1.777343-.761718.431643 0 .795572.055012 1.091797.165039.296226.110026.554361.2666.774414.469726.465497.431643.698242.981768.698242 1.650391s-.152342 1.366858-.457031 2.094726c-.304689.727869-.569172 1.318195-.793457 1.770996-.224285.452802-.437987.911945-.641113 1.377442-.634769 1.413418-.952149 2.441728-.952149 3.084961 0 .287762.228514.43164.685547.43164.355471 0 .679198-.076171.971192-.228515.291993-.152345.480305-.228516.564941-.228516.177735 0 .266602.088866.266602.266602 0 .753259-.385088 1.383786-1.155274 1.891601-.516278.347007-.990232.520508-1.421875.520508s-.789224-.046549-1.072754-.139648c-.28353-.0931-.535318-.24121-.755371-.444336-.499351-.44857-.749023-1.074866-.749023-1.878907 0-.981775.308916-2.208977.926758-3.68164.44857-1.007167.765949-1.696938.952148-2.069336l.431641-.901367c.262371-.54167.393554-.969074.393554-1.282227 0-.313152-.232745-.469726-.698242-.469726zm12.822266 7.414062c.245444 0 .368164.165038.368164.495117 0 .279299-.084635.550129-.253906.8125-.228517.490888-.685544.956378-1.371094 1.396485-.77865.499351-1.56152.749023-2.348633.749023-1.362637 0-2.22591-.609369-2.589844-1.828125-.431642-1.447273.215812-4.515276 1.942383-9.204101-.973312-.084636-1.502278-.253905-1.586914-.507813-.025391-.076172-.038086-.158691-.038086-.247559 0-.088867.040202-.192545.120606-.311035s.184081-.232747.311035-.342773c.296225-.245444.596678-.368164.901367-.368164h1.00293c.914067-2.141287 1.565753-3.3600247 1.955078-3.6562502.186199-.1354173.393553-.203125.62207-.203125s.418945.0296221.571289.0888672c.152345.0592451.28776.1438797.40625.2539062.270835.2539076.40625.5374334.40625.850586 0 .1692717-.050781.3639308-.152344.5839848l-.939453 2.043945h.304688c.524742 0 .947915-.004232 1.269531-.012695l.723633-.012696c.160808-.008463.361815-.012695.603027-.012695s.361817.088866.361817.266601c0 1.117194-1.3203 1.675782-3.960938 1.675782h-.101562l-.863282 2.234375c-.973312 2.640638-1.459961 4.489903-1.459961 5.547851 0 .296226.067708.526855.203125.691895.135418.16504.389321.247558.761719.247558s.710936-.063475 1.015625-.190429.571288-.268717.799805-.425293c.228517-.156577.425292-.298339.590332-.425293s.306803-.19043.425293-.19043z"/><path id="c" d="m65.2109375 138.453125c0-.181642.0395504-.350097.1186523-.505371.079102-.155274.1772456-.285644.2944336-.391113.246095-.228517.5039049-.342774.7734375-.342774.2343762 0 .3515625.120116.3515625.360352 0 .609378.2021465 1.034178.6064454 1.274414.1464851.087891.2988273.131836.4570312.131836s.2929682-.017578.4042969-.052735c.1113287-.035156.2138667-.09082.3076172-.166992.2109385-.169923.3164062-.372069.3164062-.606445s-.0527338-.449706-.1582031-.645996-.2373039-.402831-.3955078-.619629l-.5009766-.703125c-.7031285-.937505-1.0546875-1.801754-1.0546875-2.592774 0-.656253.2783175-1.250973.8349609-1.784179.6328157-.603519 1.444331-.905274 2.4345704-.905274.8671918 0 1.5439428.213865 2.0302734.641602.3984395.345705.5976562.741209.5976562 1.186523 0 .462893-.1757794.83203-.5273437 1.107422-.3164078.246095-.6328109.336915-.9492187.272461-.1406258-.029297-.2490231-.101074-.3251954-.215332-.0761722-.114258-.0908205-.244628-.0439453-.391113.0468753-.146485.0703125-.298828.0703125-.457031 0-.158204-.0292966-.304687-.0878906-.439454-.058594-.134766-.1376948-.249023-.2373047-.342773-.2050791-.19336-.420409-.290039-.6459961-.290039-.225587 0-.4116203.024902-.5581054.074707-.1464852.049805-.2753901.121582-.3867188.215332-.2285168.210939-.3427734.470213-.3427734.777832s.0527338.572753.1582031.79541c.1054693.222658.2358391.445312.3911133.667969s.3237295.448241.5053711.676758c.1816415.228517.348632.468748.5009765.720703.3691425.5918.553711 1.111814.553711 1.560058 0 .448245-.0937491.823241-.28125 1.125-.187501.30176-.4306626.561035-.7294922.777833-.6386751.474611-1.3535117.711914-2.1445313.711914-.7558631 0-1.3535134-.181639-1.7929687-.544922-.3632831-.304689-.5449219-.665037-.5449219-1.081055zm12.7880859-9.606445c-.1289069.134766-.2753898.244628-.4394531.32959-.1640633.084961-.3369131.137695-.5185547.158203-.1816415.020508-.3530265-.007324-.5141601-.083496-.1611336-.076173-.3002924-.18457-.4174805-.325196-.2519544-.29297-.3779297-.588865-.3779297-.887695s.0483394-.522949.1450195-.672363c.0966802-.149415.218261-.270996.3647461-.364746.2812514-.181642.5463855-.272461.7954102-.272461s.4423821.017578.5800781.052734.2651362.09375.3823242.175781c.2871108.193361.4306641.429198.4306641.70752 0 .278321-.0395504.509764-.1186523.694336-.079102.184571-.1831049.347167-.3120118.487793zm-1.8017578 9.509765c.1523445 0 .2285156.099609.2285156.298828 0 .263674-.1201159.536132-.3603515.817383-.3515643.410159-.8232392.615235-1.4150391.615235-.6796909 0-1.1455065-.275388-1.3974609-.826172-.0937505-.193361-.140625-.427733-.140625-.703125s.0483393-.581542.1450195-.918457c.0966802-.336916.2167962-.691405.3603516-1.063477s.3002921-.748533.4702148-1.129394l.4658203-1.107422c.3398455-.826176.5097657-1.371093.5097657-1.634766s-.0278318-.437988-.0834961-.522949c-.0556644-.084961-.1157224-.150879-.1801758-.197754l-.1757813-.123047c-.058594-.041016-.0878906-.112792-.0878906-.215332 0-.102539.0395504-.200683.1186524-.294434.0791019-.09375.1831048-.17578.3120117-.246093.2636732-.134767.5712873-.202149.9228515-.202149.8613325 0 1.2919922.225584 1.2919922.676758 0 .527347-.1376939 1.129391-.4130859 1.806152-.275392.676762-.5097647 1.223143-.703125 1.639161l-.5273438 1.21289c-.3867206.89063-.5800781 1.532225-.5800781 1.924805 0 .257814.128905.386719.3867188.386719.2519543 0 .4423821-.032227.571289-.09668s.222656-.09668.28125-.09668zm8.5429688-5.791992c-.1816416 0-.4394515.174315-.7734375.522949-.3339861.348635-.6240222.666503-.8701172.953614l-.7470703.896484-1.4414063 1.836914c-.3398454.644535-.6064443 1.180662-.7998047 1.608398l-.4746093 1.019532c-.1230475.251954-.2299801.429198-.3208008.531738-.0908208.10254-.2138664.153809-.3691406.153809-.1552743 0-.3046868-.027832-.4482422-.083496-.1435554-.055665-.2680659-.127441-.3735352-.215333-.2226574-.1875-.3339844-.392577-.3339844-.615234 0-.087891.0644525-.260741.1933594-.518555l.3339844-.711914c.1054693-.210938.2285149-.480467.3691406-.808593l.4921875-1.204102c.6914097-1.728524 1.0371094-2.844724 1.0371094-3.348633 0-.269532-.0878898-.468749-.2636719-.597656l-.1757812-.123047c-.0585941-.041016-.0878907-.112792-.0878907-.215332 0-.102539.0395504-.200683.1186524-.294434.0791019-.09375.1831048-.17578.3120117-.246093.2636732-.134767.5288073-.202149.7954102-.202149s.4731438.029297.6196289.087891.2695307.137695.3691406.237305c.2167979.205079.3251953.418944.3251953.641601 0 .222658-.0278318.446776-.0834961.672363-.0556643.225588-.1259761.454101-.2109375.685547-.0849614.231447-.1743159.458495-.2680664.681153-.0937505.222657-.1787106.416014-.2548828.580078l-.1757813.37793c-.0468752.09375-.0585938.123047-.0351562.08789.6503939-.902348 1.078124-1.48242 1.2832031-1.740234l.6152344-.738282c.4511741-.527346.8056628-.875975 1.0634765-1.045898.521487-.351564.9316392-.527344 1.2304688-.527344s.5507802.038086.7558594.114258c.2050791.076172.3837883.18457.5361328.325195.3222672.29883.4833984.679686.4833984 1.142579s-.1054677.946286-.3164062 1.450195c-.2109386.503909-.3940422.912596-.5493164 1.226074s-.303222.631346-.4438477.953613c-.4394553.978521-.6591797 1.690428-.6591797 2.135743 0 .199219.1582016.298828.4746094.298828.246095 0 .4702138-.052734.6723633-.158203.2021494-.10547.3325192-.158204.3911133-.158204.1230475 0 .1845703.061523.1845703.184571 0 .521487-.2665989.958006-.7998047 1.30957-.3574237.240236-.6855454.360352-.984375.360352s-.5463857-.032227-.7426758-.09668c-.19629-.064454-.3706047-.166992-.5229492-.307617-.3457049-.310549-.5185547-.744138-.5185547-1.300782 0-.67969.213865-1.529291.6416016-2.548828.3105484-.697269.5302728-1.174803.6591797-1.432617l.2988281-.624023c.1816415-.375002.2724609-.670898.2724609-.887696s-.1611312-.325195-.4833984-.325195zm3.7265625 4.40332c.0117188-.509768.0922844-1.018063.2416992-1.524902.1494148-.506838.3486316-.985837.5976562-1.437012.2490247-.451174.5449202-.867185.8876954-1.248047.3427751-.380861.7163065-.708982 1.1206054-.984374.8437542-.580082 1.7314407-.870118 2.663086-.870118.9609423 0 1.614256.383786 1.9599609 1.151368.1230475.275392.1801758.5874.1713867.936035-.0087891.348634-.0659174.667967-.1713867.958007-.1054693.290041-.2373039.549316-.3955078.777832-.3574237.515628-.7177716.773438-1.0810547.773438-.4042989 0-.703124-.111327-.8964844-.333984-.1699227-.193361-.2226565-.418944-.1582031-.676758.0175782-.076172.0703121-.145019.1582031-.206543.0878911-.061524.1992181-.159667.3339844-.294434.3808613-.398439.580078-.864255.5976563-1.397461.0117188-.363283-.2109353-.544922-.6679688-.544922-.49219 0-1.0078098.275388-1.546875.826172-.7851602.802739-1.3388656 1.831049-1.6611328 3.084961-.2812514 1.089849-.2285176 1.886716.1582031 2.390625.2285168.29297.5390605.439453.9316406.439453.6621127 0 1.3007782-.234372 1.9160157-.703125.1875009-.146485.3398431-.295897.4570312-.448242.1171881-.152344.2255855-.228515.3251953-.228515.0996099 0 .1831052.048339.2504883.145019.0673832.09668.1010742.221191.1010742.373535 0 .345705-.1552719.685545-.4658203 1.019531-.796879.761723-1.7548772 1.142579-2.8740234 1.142579-.9550829 0-1.6933568-.272459-2.2148438-.817383-.5156276-.539065-.7617188-1.306636-.7382812-2.302735zm8.4990234-.043945c.0234376-.509768.1083977-.997556.2548828-1.463379.1464851-.465822.3427722-.91699.5888672-1.353515.246095-.436526.5346663-.849608.8657227-1.239258.3310563-.389651.6899394-.730956 1.0766601-1.023926.8378949-.626956 1.6845659-.94043 2.5400389-.94043 1.001958 0 1.66992.413082 2.003906 1.239258.117189.281252.172852.613768.166993.997559-.00586.383791-.079101.738279-.219727 1.063476s-.335448.621093-.584473.887696c-.249024.266602-.54492.50537-.887695.716308-.342775.210939-.716306.389648-1.120605.536133-.832036.29297-1.7226519.445312-2.6718754.457031-.0234376.082032-.0380859.205078-.0439453.369141s.0117186.347167.0527344.549316c.0410158.20215.1113276.382324.2109375.540528.2109385.351564.515623.527343.9140628.527343.679691 0 1.341793-.199216 1.986328-.597656.228517-.134766.41455-.273925.558105-.41748.143556-.143556.268066-.215332.373535-.215332.10547 0 .197754.062987.276856.188964.079102.125978.118652.268066.118652.42627 0 .310548-.087889.580077-.263672.808594-.738285.738285-1.836906 1.107422-3.2958981 1.107422-.8613324 0-1.5527317-.25781-2.0742187-.773438-.5859404-.58594-.8613283-1.382807-.8261719-2.390625zm5.1328127-4.851562c-.615238 0-1.207029.42187-1.775391 1.265625-.480471.726566-.8671858 1.587885-1.1601561 2.583984.9785201-.09961 1.8281211-.486325 2.5488281-1.160156.662113-.632816.993164-1.239255.993164-1.819336s-.202146-.870117-.606445-.870117zm12.972656-3.023438c-.19922.468752-.618161.703125-1.256836.703125-.328127 0-.588866-.145018-.782226-.435058-.193361-.290041-.290039-.609374-.290039-.958008 0-.348635.04248-.645995.127441-.89209s.196288-.483397.333984-.711914.298827-.442382.483399-.641602c.184571-.199219.373534-.374999.566894-.527343.421877-.316408.805663-.47461 1.151367-.47461.251955 0 .389649.067382.413086.202149.011719.076172-.041015.17871-.158203.307617l-.36914.386718c-.49219.503909-.738282.949217-.738282 1.335938 0 .351564.073242.645995.219727.883301s.244629.405761.294434.505371c.049804.09961.051269.205077.004394.316406zm6.46875 4.895508c.656253 1.08399.984375 2.041988.984375 2.874023 0 .966802-.374996 1.763669-1.125 2.390625-.714847.585941-1.558589.878907-2.53125.878907-1.019536 0-1.792966-.310544-2.320312-.931641-.39844-.474612-.597657-1.019528-.597657-1.634766 0-1.113286.629877-2.074214 1.889649-2.882812.398439-.251955.82324-.46289 1.274414-.632813-.820317-1.17188-1.230469-2.334955-1.230469-3.489257 0-1.177741.386715-2.173824 1.160156-2.988282.744145-.791019 1.664057-1.192382 2.759766-1.204101 1.013677-.011719 1.810544.287106 2.390625.896484.539065.556644.808594 1.277339.808594 2.162109 0 1.962901-1.145497 3.477534-3.436524 4.543946zm-.641601-1.001953c1.441413-.761723 2.162109-1.872063 2.162109-3.331055 0-.779301-.17285-1.353514-.518555-1.722656-.316408-.339846-.72363-.483399-1.22168-.430664-.457033.035156-.852537.249021-1.186523.641601-.363283.421877-.544922.925779-.544922 1.511719 0 .544925.096679 1.037107.290039 1.476563.193361.439455.36914.791014.527344 1.054687zm-1.107422 1.96875c-1.353523.462893-2.030274 1.274408-2.030274 2.43457 0 .79102.301755 1.330077.905274 1.617188.205079.09375.426268.140625.663574.140625s.452636-.041016.645996-.123047c.19336-.082032.36914-.199218.527344-.351563.345705-.333986.518554-.72656.518554-1.177734 0-.404299-.089354-.770506-.268066-1.098633s-.344238-.594725-.496582-.799805zm6.152343 4.728515c-.175782-.169922-.306152-.364745-.391113-.584472-.084961-.219728-.127441-.437987-.127441-.654785s.038085-.42041.114257-.61084c.076173-.190431.178711-.355957.307618-.496582.29297-.316408.641599-.47461 1.045898-.47461.281252 0 .474609.055664.580078.166993.181642.187501.222657.348632.123047.483398-.257814.357424-.392578.656249-.404297.896484-.011719.240236 0 .404297.035156.492188.035157.087891.084961.158203.149415.210937.111328.09961.249022.149414.413085.149414.796879 0 1.56152-.471675 2.293946-1.415039.732425-.943364 1.315427-2.206046 1.749023-3.788086-.380861.357424-.824704.644531-1.331543.861329-.506838.216798-.966795.325195-1.379883.325195s-.764647-.048339-1.054687-.14502c-.290041-.09668-.552245-.259276-.786621-.487793-.527347-.503908-.791016-1.253901-.791016-2.25 0-1.699227.547846-3.134759 1.643555-4.30664.667972-.714848 1.417965-1.20703 2.25-1.476563.410158-.134766.848142-.202148 1.313965-.202148.465822 0 .880369.092284 1.243652.276855.363283.184572.659179.429198.887695.733887.433596.568362.650391 1.306636.650391 2.214844v.158203c0 .052735-.00293.105468-.008789.158203-.175782 2.917983-.928704 5.370107-2.258789 7.356445-.843754 1.259772-1.810541 2.129881-2.900391 2.610352-.550784.240235-1.066404.360351-1.546875.360351s-.858397-.051269-1.133789-.153808c-.275392-.10254-.503905-.238769-.685547-.408692zm5.528321-12.076171c-.480471 0-.966795.237302-1.458985.711914-.720706.691409-1.209959 1.658197-1.467773 2.90039-.082032.39258-.123047.74121-.123047 1.045899s.019043.55371.057129.74707.098144.363281.180176.509766c.169922.328126.410154.492187.720703.492187.310548 0 .597655-.061523.861328-.18457.263673-.123048.514159-.295898.751465-.518555s.455565-.487791.654785-.79541.37207-.645994.518555-1.015137c.310548-.773441.46582-1.615718.46582-2.526855 0-.911138-.386715-1.366699-1.160156-1.366699z"/></defs><g fill="none" fill-rule="evenodd"><circle cx="100.5" cy="100.5" fill-rule="nonzero" r="78.5" stroke="url(#a)" stroke-width="5"/><use fill="#333" xlink:href="#b"/><use fill="url(#a)" xlink:href="#b"/><g fill="url(#a)" fill-rule="nonzero" transform="matrix(1 0 0 -1 74 90)"><path d="m39.9383596 40.5278621c-5.7238687-4.6056658-6.6644823-5.4320677-7.6557403-6.7521028-1.345241-1.7737149-1.7899619-3.1747079-1.8712039-5.855257l-.0606677-1.7332359-1.2434248-1.0382594c-.6773684-.5745911-1.2439523-1.0782126-1.2439523-1.1186916-.0100233-.0704439 2.9732465-2.6001168 3.0539609-2.6001168.0200468 0 .4753185.4936332.991258 1.1087033l.950637 1.1087032h.6066773c.3339363 0 1.2033313.0504673 1.941895.1009346 2.7405989.2118575 4.5405841 1.058236 6.5937912 3.1142524.7380362.7349299 9.223078 11.0244743 9.617682 11.6695093.1213355.1913551.1213355.2418224-.0506444.4331776-.1012887.1109229-.2526943.1913551-.3239129.1813668-.0706911-.0199766-2.568619-2.2773365-5.5518888-5.0188668-3.4184949-3.1442173-5.501772-4.9988902-5.6531776-5.0188669-.2732686-.0404789-.5159395.3022781-.3840531.5241239.040621.0704439 2.3259481 2.5296729 5.0770979 5.4620327 2.7405988 2.9328855 5.0058792 5.3915888 5.0364768 5.4620327.0606678.1514019-.2426709.5241238-.4246741.5241238-.0706911 0-2.5786424-2.2673481-5.5724631-5.0388434-3.7418802-3.4564837-5.5218187-5.0388435-5.6737518-5.0388435-.242671 0-.4853419.3327687-.3740298.5241238.040621.0604557 2.3359715 2.5296729 5.107168 5.4925234 2.7812199 2.9628505 5.0465002 5.4420561 5.0465002 5.5125 0 .1913552-.3740297.4936332-.5259628.4331776-.0706911-.0304907-2.5686191-2.3078271-5.5418655-5.0488318-3.761927-3.476986-5.4811977-4.9988902-5.6331308-4.9988902-.1820032 0-.4346975.2518108-.4346975.4331776 0 .0304906 2.2753037 2.4891939 5.0665469 5.4725467 2.7912433 2.9933411 5.0871213 5.4925234 5.1171914 5.5629673.0606677.1408879-.2426709.5241238-.4146508.5241238-.0611953.0005257-2.5691466-1.9745327-5.5729906-4.3832944z"/><path d="m.21312838 43.7830023c1.98198844-6.4803154 5.52181874-12.3655373 10.80096652-17.9789719.7886806-.8363902 2.2352103-2.116472 4.6925172-4.1724883 2.7205522-2.2573599 3.5498537-3.0033295 3.5498537-3.174708 0-.302278.0506444-.3327687 1.5673377-1.0277453 2.6398377-1.1891355 4.6017794-2.5396612 6.5837678-4.5047313 1.3853345-1.390479 2.2352103-2.41875 4.2878898-5.20023367 1.8305829-2.48919392 2.4678579-3.27511682 3.5192561-4.31337617 2.3159247-2.28785046 4.4904673-3.1542056 8.02977-3.18469626 1.1526869-.00998832 1.1832846 0 1.6079587.29228972.6272516.44369159.8999926 1.01775701.8999926 1.92511682 0 .84637851-.2832919 2.40876169-.6066773 3.36606309-.3339363.99778037-.8699225 1.94509346-1.4460022 2.55963785-.4953652.52412383-30.8149877 25.78931072-37.38873219 31.16092292-4.47991638 3.6583528-6.24983153 5.0793224-6.3004759 5.0793224-.02954255 0 .06119528-.372722.20257747-.8264019zm3.97452779-4.4642523c3.54985367-2.9023949 6.35112023-5.210222 12.23694543-10.1181659 3.7519036-3.1242406 6.8464855-5.6938668 6.8670597-5.7143691.0706911-.0604557-1.0113047-1.3300234-1.7799385-2.0660047-1.0213281-.9778038-1.5066699-1.3405374-1.6686264-1.2396028-.0706911.0404789-1.617982 1.320035-3.4385416 2.8419392-3.3172061 2.7515187-4.3179599 3.7287968-6.3305459 6.0970795-2.55859572 3.0033294-5.1984334 7.1453271-6.64443561 10.3804906-.2933153.6650117-.27326857.6650117.75808288-.1813668zm37.17665893-32.65286215c.6979426-.29228972.7987038-1.26956776.1719798-1.76372664-.4652951-.36273364-1.2339289-.20134345-1.50667.31226636-.3033386.59456776-.0912653 1.19912383.5053886 1.4614486.3946041.1713785.4046274.1713785.8293016-.00998832z"/><path d="m16.1924816 14.5471963c-4.5305608-3.6988318-7.80767343-6.59123836-8.54570959-7.55852808-1.45655312-1.89462616-1.48662322-4.23294392-.09126537-5.78481308 1.02132809-1.11869159 2.86193436-1.51191589 4.48044396-.93732477 1.2439523.43317757 2.1238981 1.20911215 4.8845437 4.33335281 2.2046127 2.49918224 7.2917339 8.61676402 7.2917339 8.77762852 0 .1109229-1.8606529 1.3100467-2.8318642 1.8341705-.4753185.2518108-1.30462.6350468-1.8406063.8563669l-.980707.4032126z"/></g><use fill="#333" xlink:href="#c"/><use fill="url(#a)" xlink:href="#c"/></g></svg>