<svg height="200" viewBox="0 0 200 200" width="200" xmlns="http://www.w3.org/2000/svg" xmlns:xlink="http://www.w3.org/1999/xlink"><linearGradient id="a" x1="8.990765%" x2="87.913988%" y1="-4.372863%" y2="100%"><stop offset="0" stop-color="#6e4f50"/><stop offset="1" stop-color="#c67649"/></linearGradient><g fill="none" fill-rule="evenodd"><circle cx="100.5" cy="100.5" fill-rule="nonzero" r="78.5" stroke="url(#a)" stroke-width="5"/><g fill="url(#a)"><text font-family="Courgette-Regular, Courgette" font-size="26"><tspan x="38" y="115">Restaurant</tspan></text><g fill-rule="nonzero" transform="matrix(1 0 0 -1 75 90)"><path d="m39.9383596 40.5278621c-5.7238687-4.6056658-6.6644823-5.4320677-7.6557403-6.7521028-1.345241-1.7737149-1.7899619-3.1747079-1.8712039-5.855257l-.0606677-1.7332359-1.2434248-1.0382594c-.6773684-.5745911-1.2439523-1.0782126-1.2439523-1.1186916-.0100233-.0704439 2.9732465-2.6001168 3.0539609-2.6001168.0200468 0 .4753185.4936332.991258 1.1087033l.950637 1.1087032h.6066773c.3339363 0 1.2033313.0504673 1.941895.1009346 2.7405989.2118575 4.5405841 1.058236 6.5937912 3.1142524.7380362.7349299 9.223078 11.0244743 9.617682 11.6695093.1213355.1913551.1213355.2418224-.0506444.4331776-.1012887.1109229-.2526943.1913551-.3239129.1813668-.0706911-.0199766-2.568619-2.2773365-5.5518888-5.0188668-3.4184949-3.1442173-5.501772-4.9988902-5.6531776-5.0188669-.2732686-.0404789-.5159395.3022781-.3840531.5241239.040621.0704439 2.3259481 2.5296729 5.0770979 5.4620327 2.7405988 2.9328855 5.0058792 5.3915888 5.0364768 5.4620327.0606678.1514019-.2426709.5241238-.4246741.5241238-.0706911 0-2.5786424-2.2673481-5.5724631-5.0388434-3.7418802-3.4564837-5.5218187-5.0388435-5.6737518-5.0388435-.242671 0-.4853419.3327687-.3740298.5241238.040621.0604557 2.3359715 2.5296729 5.107168 5.4925234 2.7812199 2.9628505 5.0465002 5.4420561 5.0465002 5.5125 0 .1913552-.3740297.4936332-.5259628.4331776-.0706911-.0304907-2.5686191-2.3078271-5.5418655-5.0488318-3.761927-3.476986-5.4811977-4.9988902-5.6331308-4.9988902-.1820032 0-.4346975.2518108-.4346975.4331776 0 .0304906 2.2753037 2.4891939 5.0665469 5.4725467 2.7912433 2.9933411 5.0871213 5.4925234 5.1171914 5.5629673.0606677.1408879-.2426709.5241238-.4146508.5241238-.0611953.0005257-2.5691466-1.9745327-5.5729906-4.3832944z"/><path d="m.21312838 43.7830023c1.98198844-6.4803154 5.52181874-12.3655373 10.80096652-17.9789719.7886806-.8363902 2.2352103-2.116472 4.6925172-4.1724883 2.7205522-2.2573599 3.5498537-3.0033295 3.5498537-3.174708 0-.302278.0506444-.3327687 1.5673377-1.0277453 2.6398377-1.1891355 4.6017794-2.5396612 6.5837678-4.5047313 1.3853345-1.390479 2.2352103-2.41875 4.2878898-5.20023367 1.8305829-2.48919392 2.4678579-3.27511682 3.5192561-4.31337617 2.3159247-2.28785046 4.4904673-3.1542056 8.02977-3.18469626 1.1526869-.00998832 1.1832846 0 1.6079587.29228972.6272516.44369159.8999926 1.01775701.8999926 1.92511682 0 .84637851-.2832919 2.40876169-.6066773 3.36606309-.3339363.99778037-.8699225 1.94509346-1.4460022 2.55963785-.4953652.52412383-30.8149877 25.78931072-37.38873219 31.16092292-4.47991638 3.6583528-6.24983153 5.0793224-6.3004759 5.0793224-.02954255 0 .06119528-.372722.20257747-.8264019zm3.97452779-4.4642523c3.54985367-2.9023949 6.35112023-5.210222 12.23694543-10.1181659 3.7519036-3.1242406 6.8464855-5.6938668 6.8670597-5.7143691.0706911-.0604557-1.0113047-1.3300234-1.7799385-2.0660047-1.0213281-.9778038-1.5066699-1.3405374-1.6686264-1.2396028-.0706911.0404789-1.617982 1.320035-3.4385416 2.8419392-3.3172061 2.7515187-4.3179599 3.7287968-6.3305459 6.0970795-2.55859572 3.0033294-5.1984334 7.1453271-6.64443561 10.3804906-.2933153.6650117-.27326857.6650117.75808288-.1813668zm37.17665893-32.65286215c.6979426-.29228972.7987038-1.26956776.1719798-1.76372664-.4652951-.36273364-1.2339289-.20134345-1.50667.31226636-.3033386.59456776-.0912653 1.19912383.5053886 1.4614486.3946041.1713785.4046274.1713785.8293016-.00998832z"/><path d="m16.1924816 14.5471963c-4.5305608-3.6988318-7.80767343-6.59123836-8.54570959-7.55852808-1.45655312-1.89462616-1.48662322-4.23294392-.09126537-5.78481308 1.02132809-1.11869159 2.86193436-1.51191589 4.48044396-.93732477 1.2439523.43317757 2.1238981 1.20911215 4.8845437 4.33335281 2.2046127 2.49918224 7.2917339 8.61676402 7.2917339 8.77762852 0 .1109229-1.8606529 1.3100467-2.8318642 1.8341705-.4753185.2518108-1.30462.6350468-1.8406063.8563669l-.980707.4032126z"/></g><text font-family="Courgette-Regular, Courgette" font-size="18"><tspan x="66" y="140">since ‘89</tspan></text></g></g></svg>